G04 #@! TF.GenerationSoftware,KiCad,Pcbnew,7.0.1*
G04 #@! TF.CreationDate,2023-04-24T22:18:49+02:00*
G04 #@! TF.ProjectId,yeti,79657469-2e6b-4696-9361-645f70636258,rev?*
G04 #@! TF.SameCoordinates,Original*
G04 #@! TF.FileFunction,Copper,L2,Bot*
G04 #@! TF.FilePolarity,Positive*
%FSLAX46Y46*%
G04 Gerber Fmt 4.6, Leading zero omitted, Abs format (unit mm)*
G04 Created by KiCad (PCBNEW 7.0.1) date 2023-04-24 22:18:49*
%MOMM*%
%LPD*%
G01*
G04 APERTURE LIST*
G04 #@! TA.AperFunction,ComponentPad*
%ADD10C,2.500000*%
G04 #@! TD*
G04 #@! TA.AperFunction,ComponentPad*
%ADD11R,1.700000X1.700000*%
G04 #@! TD*
G04 #@! TA.AperFunction,ComponentPad*
%ADD12O,1.700000X1.700000*%
G04 #@! TD*
G04 #@! TA.AperFunction,ComponentPad*
%ADD13O,2.000000X1.600000*%
G04 #@! TD*
G04 #@! TA.AperFunction,ComponentPad*
%ADD14C,1.524000*%
G04 #@! TD*
G04 #@! TA.AperFunction,SMDPad,CuDef*
%ADD15R,1.501140X0.899160*%
G04 #@! TD*
G04 #@! TA.AperFunction,Conductor*
%ADD16C,0.250000*%
G04 #@! TD*
G04 APERTURE END LIST*
D10*
X67310000Y-41656000D03*
X73660000Y-39116000D03*
X44450000Y-66040000D03*
X50800000Y-63500000D03*
X128300160Y-127466701D03*
X134538363Y-130270077D03*
X266954000Y-58928000D03*
X273304000Y-56388000D03*
X91186000Y-34036000D03*
X97536000Y-31496000D03*
D11*
X161036000Y-69088000D03*
D12*
X163576000Y-69088000D03*
X166116000Y-69088000D03*
X168656000Y-69088000D03*
D10*
X224790000Y-41656000D03*
X231140000Y-39116000D03*
D13*
X132032000Y-72376000D03*
X133132000Y-76976000D03*
X137132000Y-76976000D03*
X140132000Y-76976000D03*
D10*
X247650000Y-66040000D03*
X254000000Y-63500000D03*
X267970000Y-78740000D03*
X274320000Y-76200000D03*
X44450000Y-27432000D03*
X50800000Y-24892000D03*
X25146000Y-58928000D03*
X31496000Y-56388000D03*
X67310000Y-60960000D03*
X73660000Y-58420000D03*
X110490000Y-39116000D03*
X116840000Y-36576000D03*
X44450000Y-46736000D03*
X50800000Y-44196000D03*
X200914000Y-72644000D03*
X207264000Y-70104000D03*
D11*
X131064000Y-69088000D03*
D12*
X133604000Y-69088000D03*
X136144000Y-69088000D03*
X138684000Y-69088000D03*
D10*
X224790000Y-22352000D03*
X231140000Y-19812000D03*
D13*
X167731500Y-76976000D03*
X166631500Y-72376000D03*
X162631500Y-72376000D03*
X159631500Y-72376000D03*
D14*
X127000000Y-33020000D03*
X127000000Y-35560000D03*
X127000000Y-38100000D03*
X127000000Y-40640000D03*
X127000000Y-43180000D03*
X127000000Y-45720000D03*
X127000000Y-48260000D03*
X127000000Y-50800000D03*
X127000000Y-53340000D03*
X127000000Y-55880000D03*
X127000000Y-58420000D03*
X127000000Y-60960000D03*
X127000000Y-63500000D03*
X129540000Y-63500000D03*
X132080000Y-63500000D03*
X134620000Y-63500000D03*
X137160000Y-63500000D03*
X139700000Y-63500000D03*
X142240000Y-63500000D03*
X142240000Y-60960000D03*
X142240000Y-58420000D03*
X142240000Y-55880000D03*
X142240000Y-53340000D03*
X142240000Y-50800000D03*
X142240000Y-48260000D03*
X142240000Y-45720000D03*
X142240000Y-43180000D03*
X142240000Y-40640000D03*
X142240000Y-38100000D03*
X142240000Y-35560000D03*
X142240000Y-33020000D03*
D10*
X110490000Y-77724000D03*
X116840000Y-75184000D03*
X247650000Y-27432000D03*
X254000000Y-24892000D03*
X110490000Y-58420000D03*
X116840000Y-55880000D03*
X224790000Y-60960000D03*
X231140000Y-58420000D03*
X181610000Y-58420000D03*
X187960000Y-55880000D03*
D14*
X157480000Y-33020000D03*
X157480000Y-35560000D03*
X157480000Y-38100000D03*
X157480000Y-40640000D03*
X157480000Y-43180000D03*
X157480000Y-45720000D03*
X157480000Y-48260000D03*
X157480000Y-50800000D03*
X157480000Y-53340000D03*
X157480000Y-55880000D03*
X157480000Y-58420000D03*
X157480000Y-60960000D03*
X157480000Y-63500000D03*
X160020000Y-63500000D03*
X162560000Y-63500000D03*
X165100000Y-63500000D03*
X167640000Y-63500000D03*
X170180000Y-63500000D03*
X172720000Y-63500000D03*
X172720000Y-60960000D03*
X172720000Y-58420000D03*
X172720000Y-55880000D03*
X172720000Y-53340000D03*
X172720000Y-50800000D03*
X172720000Y-48260000D03*
X172720000Y-45720000D03*
X172720000Y-43180000D03*
X172720000Y-40640000D03*
X172720000Y-38100000D03*
X172720000Y-35560000D03*
X172720000Y-33020000D03*
D10*
X247650000Y-46736000D03*
X254000000Y-44196000D03*
X91186000Y-72644000D03*
X97536000Y-70104000D03*
X181610000Y-39116000D03*
X187960000Y-36576000D03*
X286258000Y-58928000D03*
X292608000Y-56388000D03*
X67310000Y-22352000D03*
X73660000Y-19812000D03*
X109303947Y-111314611D03*
X115916163Y-109567414D03*
X200914000Y-34036000D03*
X207264000Y-31496000D03*
X24130000Y-78740000D03*
X30480000Y-76200000D03*
X200914000Y-53340000D03*
X207264000Y-50800000D03*
X5842000Y-58928000D03*
X12192000Y-56388000D03*
X91186000Y-53340000D03*
X97536000Y-50800000D03*
X166241364Y-133056252D03*
X168825321Y-126724012D03*
X182852851Y-112243255D03*
X188845971Y-108948317D03*
X181610000Y-77724000D03*
X187960000Y-75184000D03*
D15*
X241259360Y-26339800D03*
X241259360Y-29540200D03*
X236260640Y-29540200D03*
X236260640Y-26339800D03*
X102575360Y-89839800D03*
X102575360Y-93040200D03*
X97576640Y-93040200D03*
X97576640Y-89839800D03*
X202143360Y-89839800D03*
X202143360Y-93040200D03*
X197144640Y-93040200D03*
X197144640Y-89839800D03*
X63459360Y-26339800D03*
X63459360Y-29540200D03*
X58460640Y-29540200D03*
X58460640Y-26339800D03*
X22311360Y-64947800D03*
X22311360Y-68148200D03*
X17312640Y-68148200D03*
X17312640Y-64947800D03*
X241259360Y-72059800D03*
X241259360Y-75260200D03*
X236260640Y-75260200D03*
X236260640Y-72059800D03*
X107655360Y-36499800D03*
X107655360Y-39700200D03*
X102656640Y-39700200D03*
X102656640Y-36499800D03*
X197063360Y-36499800D03*
X197063360Y-39700200D03*
X192064640Y-39700200D03*
X192064640Y-36499800D03*
X117815360Y-127939800D03*
X117815360Y-131140200D03*
X112816640Y-131140200D03*
X112816640Y-127939800D03*
X282407360Y-64947800D03*
X282407360Y-68148200D03*
X277408640Y-68148200D03*
X277408640Y-64947800D03*
X186903360Y-127939800D03*
X186903360Y-131140200D03*
X181904640Y-131140200D03*
X181904640Y-127939800D03*
X63459360Y-72059800D03*
X63459360Y-75260200D03*
X58460640Y-75260200D03*
X58460640Y-72059800D03*
D16*
X292480310Y-53848000D02*
X261492310Y-53848000D01*
X276333070Y-64173220D02*
X276498290Y-64008000D01*
X185827790Y-129015370D02*
X185827790Y-131914780D01*
X203053710Y-93980000D02*
X199644000Y-93980000D01*
X185827790Y-131914780D02*
X185993010Y-132080000D01*
X201368780Y-89065220D02*
X202143360Y-89839800D01*
X296672000Y-62484000D02*
X296672000Y-58039690D01*
X187813710Y-132080000D02*
X187978930Y-131914780D01*
X258630499Y-50986189D02*
X258630499Y-26982499D01*
X241259360Y-72059800D02*
X237119160Y-76200000D01*
X277558380Y-65722380D02*
X276333070Y-65722380D01*
X244583150Y-23317000D02*
X241560350Y-26339800D01*
X174752000Y-45212000D02*
X174752000Y-65532000D01*
X172720000Y-43180000D02*
X174752000Y-45212000D01*
X254965000Y-23317000D02*
X244583150Y-23317000D01*
X186385000Y-37541000D02*
X186995000Y-38151000D01*
X197104000Y-96520000D02*
X199644000Y-93980000D01*
X217424000Y-73660000D02*
X204216000Y-86868000D01*
X257175690Y-73660000D02*
X267335690Y-83820000D01*
X184696910Y-89065220D02*
X201368780Y-89065220D01*
X186903360Y-127939800D02*
X185827790Y-129015370D01*
X282407360Y-64947800D02*
X294208200Y-64947800D01*
X195412160Y-38151000D02*
X197063360Y-36499800D01*
X166631500Y-72376000D02*
X169940000Y-72376000D01*
X296672000Y-58039690D02*
X292480310Y-53848000D01*
X276498290Y-64008000D02*
X281467560Y-64008000D01*
X241259360Y-72059800D02*
X242859560Y-73660000D01*
X261492310Y-53848000D02*
X258630499Y-50986189D01*
X258630499Y-26982499D02*
X254965000Y-23317000D01*
X170180000Y-70104000D02*
X170180000Y-72644000D01*
X187978930Y-131914780D02*
X187978930Y-130701026D01*
X200736200Y-89839800D02*
X202143360Y-89839800D01*
X185993010Y-132080000D02*
X187813710Y-132080000D01*
X278950499Y-81093811D02*
X278950499Y-67114499D01*
X170180000Y-74548310D02*
X184696910Y-89065220D01*
X267335690Y-83820000D02*
X276224310Y-83820000D01*
X174752000Y-65532000D02*
X170180000Y-70104000D01*
X204216000Y-92817710D02*
X203053710Y-93980000D01*
X170180000Y-72644000D02*
X170180000Y-74548310D01*
X241560350Y-26339800D02*
X241259360Y-26339800D01*
X235204000Y-76200000D02*
X232664000Y-73660000D01*
X278950499Y-67114499D02*
X277558380Y-65722380D01*
X199644000Y-93980000D02*
X199644000Y-90932000D01*
X197104000Y-121575956D02*
X197104000Y-96520000D01*
X172720000Y-43180000D02*
X178359000Y-37541000D01*
X169940000Y-72376000D02*
X170180000Y-72136000D01*
X281467560Y-64008000D02*
X282407360Y-64947800D01*
X294208200Y-64947800D02*
X296672000Y-62484000D01*
X204216000Y-86868000D02*
X204216000Y-92817710D01*
X166631500Y-72376000D02*
X166631500Y-69603500D01*
X178359000Y-37541000D02*
X186385000Y-37541000D01*
X187978930Y-130701026D02*
X197104000Y-121575956D01*
X237119160Y-76200000D02*
X235204000Y-76200000D01*
X242859560Y-73660000D02*
X257175690Y-73660000D01*
X232664000Y-73660000D02*
X217424000Y-73660000D01*
X199644000Y-90932000D02*
X200736200Y-89839800D01*
X166631500Y-69603500D02*
X166116000Y-69088000D01*
X186995000Y-38151000D02*
X195412160Y-38151000D01*
X276224310Y-83820000D02*
X278950499Y-81093811D01*
X276333070Y-65722380D02*
X276333070Y-64173220D01*
X177910744Y-136984246D02*
X166668503Y-136984246D01*
X181904640Y-127939800D02*
X182980210Y-129015370D01*
X179832000Y-84836000D02*
X173228000Y-78232000D01*
X164084000Y-132080000D02*
X165100000Y-131064000D01*
X155056998Y-37983002D02*
X157480000Y-35560000D01*
X182980210Y-131914780D02*
X177910744Y-136984246D01*
X160491484Y-78232000D02*
X155056998Y-72797514D01*
X164084000Y-134399743D02*
X164084000Y-132080000D01*
X182980210Y-129015370D02*
X182980210Y-131914780D01*
X173228000Y-78232000D02*
X160491484Y-78232000D01*
X167311003Y-131064000D02*
X179832000Y-118543003D01*
X179832000Y-118543003D02*
X179832000Y-84836000D01*
X165100000Y-131064000D02*
X167311003Y-131064000D01*
X155056998Y-72797514D02*
X155056998Y-37983002D01*
X166668503Y-136984246D02*
X164084000Y-134399743D01*
X241259360Y-29540200D02*
X239659160Y-27940000D01*
X217932000Y-29464000D02*
X201150220Y-29464000D01*
X227584000Y-20320000D02*
X223520000Y-20320000D01*
X223520000Y-20320000D02*
X221488000Y-22352000D01*
X194114420Y-36499800D02*
X192064640Y-36499800D01*
X234188000Y-27940000D02*
X231648000Y-25400000D01*
X231648000Y-25400000D02*
X231648000Y-24384000D01*
X221488000Y-25908000D02*
X217932000Y-29464000D01*
X201150220Y-29464000D02*
X194114420Y-36499800D01*
X221488000Y-22352000D02*
X221488000Y-25908000D01*
X239659160Y-27940000D02*
X234188000Y-27940000D01*
X231648000Y-24384000D02*
X227584000Y-20320000D01*
X267149501Y-84269501D02*
X276410499Y-84269501D01*
X242351560Y-74168000D02*
X257048000Y-74168000D01*
X277709630Y-64947800D02*
X277408640Y-64947800D01*
X279400000Y-81280000D02*
X279400000Y-66638170D01*
X241259360Y-75260200D02*
X242351560Y-74168000D01*
X279400000Y-66638170D02*
X277709630Y-64947800D01*
X257048000Y-74168000D02*
X267149501Y-84269501D01*
X276410499Y-84269501D02*
X279400000Y-81280000D01*
X129032000Y-62413000D02*
X128453000Y-62992000D01*
X129032000Y-47752000D02*
X129032000Y-62413000D01*
X127000000Y-45720000D02*
X129032000Y-47752000D01*
X128453000Y-66477000D02*
X131064000Y-69088000D01*
X128453000Y-62992000D02*
X128453000Y-66477000D01*
X203708000Y-86740310D02*
X217296310Y-73152000D01*
X202143360Y-93040200D02*
X203123800Y-93040200D01*
X203123800Y-93040200D02*
X203708000Y-92456000D01*
X235168440Y-73152000D02*
X236260640Y-72059800D01*
X203708000Y-92456000D02*
X203708000Y-86740310D01*
X217296310Y-73152000D02*
X235168440Y-73152000D01*
X155506499Y-69654499D02*
X156972000Y-71120000D01*
X155506499Y-45153501D02*
X155506499Y-69654499D01*
X161375500Y-71120000D02*
X162631500Y-72376000D01*
X157480000Y-43180000D02*
X155506499Y-45153501D01*
X156972000Y-71120000D02*
X161375500Y-71120000D01*
X236561630Y-26339800D02*
X236260640Y-26339800D01*
X292608000Y-53340000D02*
X261620000Y-53340000D01*
X284538499Y-65473501D02*
X294415250Y-65473501D01*
X255270000Y-22860000D02*
X240041430Y-22860000D01*
X282407360Y-67604640D02*
X284538499Y-65473501D01*
X259080000Y-26670000D02*
X255270000Y-22860000D01*
X259080000Y-50800000D02*
X259080000Y-26670000D01*
X297180000Y-62708751D02*
X297180000Y-57912000D01*
X261620000Y-53340000D02*
X259080000Y-50800000D01*
X240041430Y-22860000D02*
X236561630Y-26339800D01*
X282407360Y-68148200D02*
X282407360Y-67604640D01*
X294415250Y-65473501D02*
X297180000Y-62708751D01*
X297180000Y-57912000D02*
X292608000Y-53340000D01*
X198220210Y-94768100D02*
X198220210Y-90915370D01*
X198220210Y-90915370D02*
X197144640Y-89839800D01*
X186903360Y-131140200D02*
X196654499Y-121389061D01*
X196654499Y-121389061D02*
X196654499Y-96333811D01*
X196654499Y-96333811D02*
X198220210Y-94768100D01*
X100584000Y-35052000D02*
X97917690Y-35052000D01*
X84209722Y-30030499D02*
X77039223Y-22860000D01*
X77039223Y-22860000D02*
X74295690Y-22860000D01*
X101716998Y-37650499D02*
X101326001Y-37259502D01*
X92896189Y-30030499D02*
X84209722Y-30030499D01*
X101326001Y-37259502D02*
X101326001Y-35794001D01*
X105605659Y-37650499D02*
X101716998Y-37650499D01*
X101326001Y-35794001D02*
X100584000Y-35052000D01*
X74295690Y-22860000D02*
X71247690Y-19812000D01*
X71247690Y-19812000D02*
X66548000Y-19812000D01*
X60020200Y-26339800D02*
X58460640Y-26339800D01*
X66548000Y-19812000D02*
X60020200Y-26339800D01*
X97917690Y-35052000D02*
X92896189Y-30030499D01*
X107655360Y-39700200D02*
X105605659Y-37650499D01*
X133132000Y-76976000D02*
X126604310Y-76976000D01*
X83820000Y-30480000D02*
X76708000Y-23368000D01*
X102575360Y-91008857D02*
X106054503Y-94488000D01*
X106054503Y-120541973D02*
X112512530Y-127000000D01*
X106054503Y-94488000D02*
X106054503Y-120541973D01*
X63459360Y-72059800D02*
X62519560Y-71120000D01*
X118890930Y-129015370D02*
X117815360Y-127939800D01*
X118422499Y-109760797D02*
X136652000Y-127990298D01*
X120015690Y-134620000D02*
X118872000Y-133476310D01*
X30480000Y-79648774D02*
X30480000Y-83184310D01*
X97137466Y-89065220D02*
X84271747Y-76199501D01*
X74168000Y-23368000D02*
X71120000Y-20320000D01*
X118890930Y-131914780D02*
X118890930Y-129015370D01*
X84271747Y-76199501D02*
X67599061Y-76199501D01*
X97790000Y-36850000D02*
X97790000Y-35560000D01*
X108730930Y-40377303D02*
X108468233Y-40640000D01*
X132460310Y-132588000D02*
X130428310Y-134620000D01*
X98652210Y-89839800D02*
X98652210Y-89065220D01*
X97790000Y-35560000D02*
X92710000Y-30480000D01*
X134620000Y-132588000D02*
X132460310Y-132588000D01*
X117514370Y-127939800D02*
X117815360Y-127939800D01*
X66675690Y-20320000D02*
X63459360Y-23536330D01*
X136652000Y-130556000D02*
X134620000Y-132588000D01*
X98652210Y-89065220D02*
X97137466Y-89065220D01*
X62519560Y-71120000D02*
X57439560Y-71120000D01*
X126604310Y-76976000D02*
X118422499Y-85157811D01*
X23386930Y-66023370D02*
X22311360Y-64947800D01*
X130428310Y-134620000D02*
X120015690Y-134620000D01*
X118872000Y-133476310D02*
X118872000Y-131933710D01*
X92710000Y-30480000D02*
X83820000Y-30480000D01*
X76708000Y-23368000D02*
X74168000Y-23368000D01*
X71120000Y-20320000D02*
X66675690Y-20320000D01*
X116769000Y-39553000D02*
X113715800Y-36499800D01*
X136652000Y-127990298D02*
X136652000Y-130556000D01*
X30480000Y-83184310D02*
X29844310Y-83820000D01*
X142240000Y-43180000D02*
X138613000Y-39553000D01*
X105446590Y-40640000D02*
X102906590Y-38100000D01*
X113715800Y-36499800D02*
X107655360Y-36499800D01*
X52809061Y-75750499D02*
X34378275Y-75750499D01*
X99040000Y-38100000D02*
X97790000Y-36850000D01*
X63459360Y-23536330D02*
X63459360Y-26339800D01*
X138613000Y-39553000D02*
X116769000Y-39553000D01*
X29844310Y-83820000D02*
X23495690Y-83820000D01*
X108468233Y-40640000D02*
X105446590Y-40640000D01*
X21336000Y-81660310D02*
X21336000Y-71120000D01*
X23495690Y-83820000D02*
X21336000Y-81660310D01*
X102575360Y-89839800D02*
X98652210Y-89839800D01*
X102906590Y-38100000D02*
X99040000Y-38100000D01*
X118872000Y-131933710D02*
X118890930Y-131914780D01*
X21336000Y-71120000D02*
X23386930Y-69069070D01*
X57439560Y-71120000D02*
X52809061Y-75750499D01*
X102575360Y-89839800D02*
X102575360Y-91008857D01*
X67599061Y-76199501D02*
X63459360Y-72059800D01*
X108730930Y-37575370D02*
X108730930Y-40377303D01*
X23386930Y-69069070D02*
X23386930Y-66023370D01*
X118422499Y-85157811D02*
X118422499Y-109760797D01*
X107655360Y-36499800D02*
X108730930Y-37575370D01*
X116574570Y-127000000D02*
X117514370Y-127939800D01*
X34378275Y-75750499D02*
X30480000Y-79648774D01*
X67599061Y-76199501D02*
X67581780Y-76182220D01*
X112512530Y-127000000D02*
X116574570Y-127000000D01*
X63459360Y-75260200D02*
X63760350Y-75260200D01*
X84085351Y-76649501D02*
X97275650Y-89839800D01*
X63760350Y-75260200D02*
X65149651Y-76649501D01*
X97275650Y-89839800D02*
X97576640Y-89839800D01*
X65149651Y-76649501D02*
X84085351Y-76649501D01*
X49530000Y-60960000D02*
X44450000Y-66040000D01*
X143764000Y-46228000D02*
X143764000Y-68580000D01*
X128228701Y-127466701D02*
X128300160Y-127466701D01*
X58460640Y-75260200D02*
X58761630Y-75260200D01*
X25400000Y-77470000D02*
X25400000Y-59182000D01*
X83703002Y-77099002D02*
X96501070Y-89897070D01*
X91186000Y-73660000D02*
X91186000Y-53340000D01*
X19812000Y-65532000D02*
X19812000Y-58928000D01*
X110744000Y-44450000D02*
X110744000Y-77470000D01*
X118872000Y-109574608D02*
X137160000Y-127862608D01*
X111741070Y-130064630D02*
X112816640Y-131140200D01*
X110490000Y-77724000D02*
X105575000Y-72809000D01*
X111741070Y-127500626D02*
X111741070Y-130064630D01*
X136466010Y-75851000D02*
X134085010Y-78232000D01*
X143764000Y-68580000D02*
X136493000Y-75851000D01*
X138684000Y-69088000D02*
X143256000Y-69088000D01*
X67310000Y-60960000D02*
X79502000Y-60960000D01*
X44450000Y-66040000D02*
X44450000Y-64516000D01*
X97218380Y-90614380D02*
X97576640Y-90972640D01*
X96501070Y-90614380D02*
X97218380Y-90614380D01*
X53212310Y-27432000D02*
X55320510Y-29540200D01*
X91186000Y-53340000D02*
X91186000Y-34036000D01*
X25146000Y-58928000D02*
X25146000Y-58917768D01*
X17312640Y-68031360D02*
X19812000Y-65532000D01*
X55320510Y-29540200D02*
X58460640Y-29540200D01*
X60600432Y-77099002D02*
X83703002Y-77099002D01*
X110744000Y-39370000D02*
X110744000Y-44450000D01*
X79502000Y-60960000D02*
X91186000Y-72644000D01*
X44450000Y-46736000D02*
X44450000Y-27432000D01*
X19812000Y-58928000D02*
X5842000Y-58928000D01*
X25400000Y-59182000D02*
X25146000Y-58928000D01*
X109303947Y-111314611D02*
X109749336Y-111760000D01*
X137160000Y-130683690D02*
X134806189Y-133037501D01*
X44450000Y-66040000D02*
X25400000Y-66040000D01*
X105155002Y-120914558D02*
X111741070Y-127500626D01*
X107589440Y-44633000D02*
X102656640Y-39700200D01*
X110744000Y-77470000D02*
X110490000Y-77724000D01*
X91351000Y-72809000D02*
X91186000Y-72644000D01*
X134806189Y-133037501D02*
X132646499Y-133037501D01*
X97576640Y-93040200D02*
X98516440Y-93980000D01*
X136493000Y-75851000D02*
X136466010Y-75851000D01*
X58761630Y-75260200D02*
X60600432Y-77099002D01*
X105155002Y-96519002D02*
X105155002Y-120914558D01*
X118872000Y-85344000D02*
X118872000Y-109574608D01*
X109303947Y-111314611D02*
X113854611Y-111314611D01*
X113854611Y-111314611D02*
X115824000Y-113284000D01*
X115824000Y-115062000D02*
X128228701Y-127466701D01*
X17312640Y-68148200D02*
X17312640Y-68031360D01*
X44450000Y-27432000D02*
X53212310Y-27432000D01*
X102616000Y-93980000D02*
X105155002Y-96519002D01*
X142240000Y-38100000D02*
X143764000Y-39624000D01*
X143764000Y-39624000D02*
X143764000Y-46228000D01*
X98516440Y-93980000D02*
X102616000Y-93980000D01*
X110490000Y-39116000D02*
X110744000Y-39370000D01*
X67310000Y-60960000D02*
X51054000Y-60960000D01*
X96501070Y-89897070D02*
X96501070Y-90614380D01*
X24130000Y-78740000D02*
X25400000Y-77470000D01*
X110490000Y-77724000D02*
X110744000Y-77978000D01*
X91186000Y-72644000D02*
X91186000Y-73660000D01*
X115824000Y-113284000D02*
X115824000Y-115062000D01*
X51054000Y-60960000D02*
X49530000Y-60960000D01*
X143256000Y-69088000D02*
X143764000Y-68580000D01*
X110744000Y-77978000D02*
X110744000Y-111314611D01*
X134085010Y-78232000D02*
X125984000Y-78232000D01*
X137160000Y-127862608D02*
X137160000Y-130683690D01*
X97576640Y-90972640D02*
X97576640Y-93040200D01*
X143693000Y-44633000D02*
X107589440Y-44633000D01*
X119888000Y-135128000D02*
X115900200Y-131140200D01*
X25146000Y-58928000D02*
X19812000Y-58928000D01*
X44450000Y-46736000D02*
X44450000Y-66040000D01*
X130556000Y-135128000D02*
X119888000Y-135128000D01*
X143764000Y-46228000D02*
X143764000Y-44704000D01*
X125984000Y-78232000D02*
X118872000Y-85344000D01*
X132646499Y-133037501D02*
X130556000Y-135128000D01*
X115900200Y-131140200D02*
X112816640Y-131140200D01*
X25146000Y-58917768D02*
X24648232Y-58420000D01*
X67310000Y-22352000D02*
X67310000Y-60960000D01*
X105575000Y-72809000D02*
X91351000Y-72809000D01*
X143764000Y-44704000D02*
X143693000Y-44633000D01*
X125984000Y-34544000D02*
X104612440Y-34544000D01*
X127000000Y-35560000D02*
X125984000Y-34544000D01*
X104612440Y-34544000D02*
X102656640Y-36499800D01*
X57226200Y-72059800D02*
X53086000Y-76200000D01*
X20828000Y-70612000D02*
X22311360Y-69128640D01*
X20828000Y-81788000D02*
X20828000Y-70612000D01*
X23368000Y-84328000D02*
X20828000Y-81788000D01*
X53086000Y-76200000D02*
X34564464Y-76200000D01*
X34564464Y-76200000D02*
X30988000Y-79776464D01*
X22311360Y-69128640D02*
X22311360Y-68148200D01*
X29972000Y-84328000D02*
X23368000Y-84328000D01*
X30988000Y-79776464D02*
X30988000Y-83312000D01*
X58460640Y-72059800D02*
X57226200Y-72059800D01*
X30988000Y-83312000D02*
X29972000Y-84328000D01*
X45466000Y-25400000D02*
X46990000Y-26924000D01*
X41656000Y-26924000D02*
X43180000Y-25400000D01*
X3048000Y-61976000D02*
X3048000Y-57687307D01*
X17312640Y-64947800D02*
X17236440Y-65024000D01*
X3048000Y-57687307D02*
X6887307Y-53848000D01*
X6887307Y-53848000D02*
X37592000Y-53848000D01*
X54864000Y-28448000D02*
X62367160Y-28448000D01*
X17236440Y-65024000D02*
X6096000Y-65024000D01*
X41656000Y-49784000D02*
X41656000Y-26924000D01*
X43180000Y-25400000D02*
X45466000Y-25400000D01*
X53340000Y-26924000D02*
X54864000Y-28448000D01*
X62367160Y-28448000D02*
X63459360Y-29540200D01*
X46990000Y-26924000D02*
X53340000Y-26924000D01*
X37592000Y-53848000D02*
X41656000Y-49784000D01*
X6096000Y-65024000D02*
X3048000Y-61976000D01*
X105605002Y-120728162D02*
X105605002Y-95768852D01*
X105605002Y-95768852D02*
X102876350Y-93040200D01*
X102876350Y-93040200D02*
X102575360Y-93040200D01*
X112816640Y-127939800D02*
X105605002Y-120728162D01*
X127000000Y-58420000D02*
X127000000Y-58675380D01*
X115824000Y-74168000D02*
X116840000Y-75184000D01*
X115824000Y-69851380D02*
X115824000Y-74168000D01*
X127000000Y-58675380D02*
X115824000Y-69851380D01*
X127000000Y-55880000D02*
X125417501Y-57462499D01*
X117856000Y-79472233D02*
X117856000Y-107627577D01*
X117856000Y-107627577D02*
X115916163Y-109567414D01*
X115265000Y-69774690D02*
X115265000Y-76881233D01*
X125417501Y-59622189D02*
X115265000Y-69774690D01*
X115265000Y-76881233D02*
X117856000Y-79472233D01*
X125417501Y-57462499D02*
X125417501Y-59622189D01*
X124968000Y-55372000D02*
X124968000Y-59436000D01*
X117348000Y-79663538D02*
X117348000Y-105156000D01*
X117348000Y-105156000D02*
X113741000Y-108763000D01*
X134538363Y-126512351D02*
X134538363Y-130270077D01*
X127000000Y-53340000D02*
X124968000Y-55372000D01*
X115316000Y-111760000D02*
X119786012Y-111760000D01*
X124968000Y-59436000D02*
X114815499Y-69588501D01*
X114815499Y-77131037D02*
X117348000Y-79663538D01*
X114815499Y-69588501D02*
X114815499Y-77131037D01*
X113741000Y-108763000D02*
X113741000Y-110185000D01*
X113741000Y-110185000D02*
X115316000Y-111760000D01*
X119786012Y-111760000D02*
X134538363Y-126512351D01*
X127585833Y-62412793D02*
X126549956Y-62412793D01*
X132429000Y-70263000D02*
X133604000Y-69088000D01*
X128087000Y-61911626D02*
X127585833Y-62412793D01*
X128087000Y-49347000D02*
X128087000Y-61911626D01*
X127000000Y-48260000D02*
X128087000Y-49347000D01*
X129699000Y-70263000D02*
X132429000Y-70263000D01*
X125913000Y-66477000D02*
X129699000Y-70263000D01*
X126549956Y-62412793D02*
X125913000Y-63049749D01*
X125913000Y-63049749D02*
X125913000Y-66477000D01*
X155956000Y-47244000D02*
X155956000Y-65024000D01*
X157480000Y-45720000D02*
X155956000Y-47244000D01*
X155956000Y-65024000D02*
X160020000Y-69088000D01*
X160020000Y-69088000D02*
X161036000Y-69088000D01*
X157480000Y-48260000D02*
X158933000Y-49713000D01*
X158933000Y-64445000D02*
X163576000Y-69088000D01*
X158933000Y-49713000D02*
X158933000Y-64445000D01*
X263144000Y-78740000D02*
X267970000Y-78740000D01*
X181590000Y-77724000D02*
X195336233Y-77724000D01*
X192064640Y-43139360D02*
X192064640Y-39700200D01*
X266954000Y-58928000D02*
X286258000Y-58928000D01*
X240235620Y-71285220D02*
X242227220Y-71285220D01*
X224790000Y-29210000D02*
X224790000Y-60960000D01*
X236260640Y-29540200D02*
X225120200Y-29540200D01*
X200914000Y-72644000D02*
X200914000Y-53340000D01*
X181610000Y-44450000D02*
X181610000Y-58420000D01*
X173270808Y-126026808D02*
X183388000Y-115909616D01*
X181610000Y-39116000D02*
X181610000Y-44450000D01*
X180416200Y-131140200D02*
X174286808Y-125010808D01*
X247650000Y-73152000D02*
X257556000Y-73152000D01*
X200914000Y-34036000D02*
X200914000Y-53340000D01*
X224790000Y-60960000D02*
X241046000Y-60960000D01*
X200416233Y-72644000D02*
X200914000Y-72644000D01*
X267716000Y-59690000D02*
X266954000Y-58928000D01*
X181610000Y-44704000D02*
X181686200Y-44780200D01*
X241046000Y-60960000D02*
X242570000Y-60960000D01*
X247650000Y-66040000D02*
X247650000Y-73152000D01*
X181686200Y-44780200D02*
X190423800Y-44780200D01*
X244094000Y-73152000D02*
X247650000Y-73152000D01*
X195336233Y-77724000D02*
X200416233Y-72644000D01*
X183388000Y-112778404D02*
X182852851Y-112243255D01*
X174286808Y-125010808D02*
X173270808Y-126026808D01*
X220218000Y-60960000D02*
X224790000Y-60960000D01*
X242227220Y-71285220D02*
X244094000Y-73152000D01*
X208534000Y-72644000D02*
X220218000Y-60960000D01*
X267716000Y-68072000D02*
X277332440Y-68072000D01*
X182852851Y-112243255D02*
X183336106Y-111760000D01*
X224790000Y-22352000D02*
X224790000Y-29210000D01*
X267970000Y-78740000D02*
X267716000Y-78486000D01*
X166241364Y-133056252D02*
X173270808Y-126026808D01*
X197144640Y-94955360D02*
X197144640Y-93040200D01*
X267716000Y-78486000D02*
X267716000Y-59690000D01*
X181610000Y-60422233D02*
X181590000Y-60442233D01*
X277332440Y-68072000D02*
X277408640Y-68148200D01*
X181610000Y-58420000D02*
X181610000Y-60422233D01*
X257556000Y-73152000D02*
X263144000Y-78740000D01*
X181904640Y-131140200D02*
X180416200Y-131140200D01*
X247650000Y-46736000D02*
X247650000Y-27432000D01*
X181610000Y-44450000D02*
X181610000Y-44704000D01*
X247650000Y-66040000D02*
X247650000Y-46736000D01*
X183388000Y-115909616D02*
X183388000Y-112778404D01*
X196088000Y-109728000D02*
X196088000Y-96012000D01*
X225120200Y-29540200D02*
X224790000Y-29210000D01*
X236260640Y-75260200D02*
X240235620Y-71285220D01*
X242570000Y-60960000D02*
X247650000Y-66040000D01*
X194056000Y-111760000D02*
X196088000Y-109728000D01*
X200914000Y-72644000D02*
X208534000Y-72644000D01*
X181590000Y-60442233D02*
X181590000Y-77724000D01*
X183336106Y-111760000D02*
X194056000Y-111760000D01*
X196088000Y-96012000D02*
X197144640Y-94955360D01*
X190423800Y-44780200D02*
X192064640Y-43139360D01*
M02*
