G04 #@! TF.GenerationSoftware,KiCad,Pcbnew,(6.0.7)*
G04 #@! TF.CreationDate,2022-09-16T15:10:18+02:00*
G04 #@! TF.ProjectId,yeti,79657469-2e6b-4696-9361-645f70636258,rev?*
G04 #@! TF.SameCoordinates,Original*
G04 #@! TF.FileFunction,Copper,L1,Top*
G04 #@! TF.FilePolarity,Positive*
%FSLAX46Y46*%
G04 Gerber Fmt 4.6, Leading zero omitted, Abs format (unit mm)*
G04 Created by KiCad (PCBNEW (6.0.7)) date 2022-09-16 15:10:18*
%MOMM*%
%LPD*%
G01*
G04 APERTURE LIST*
G04 #@! TA.AperFunction,ComponentPad*
%ADD10C,2.500000*%
G04 #@! TD*
G04 #@! TA.AperFunction,ComponentPad*
%ADD11O,2.000000X1.600000*%
G04 #@! TD*
G04 #@! TA.AperFunction,ComponentPad*
%ADD12C,1.524000*%
G04 #@! TD*
G04 #@! TA.AperFunction,ComponentPad*
%ADD13C,1.750000*%
G04 #@! TD*
G04 #@! TA.AperFunction,Conductor*
%ADD14C,0.250000*%
G04 #@! TD*
G04 APERTURE END LIST*
D10*
X62230000Y-40640000D03*
X68580000Y-38100000D03*
X39370000Y-68580000D03*
X45720000Y-66040000D03*
X126828502Y-130930084D03*
X133664282Y-130715093D03*
X275590000Y-58420000D03*
X281940000Y-55880000D03*
X87630000Y-33020000D03*
X93980000Y-30480000D03*
X229870000Y-40640000D03*
X236220000Y-38100000D03*
D11*
X133480000Y-68820000D03*
X134580000Y-73420000D03*
X138580000Y-73420000D03*
X141580000Y-73420000D03*
D10*
X252730000Y-68580000D03*
X259080000Y-66040000D03*
D12*
X142240000Y-33020000D03*
X142240000Y-35560000D03*
X142240000Y-38100000D03*
X142240000Y-40640000D03*
X142240000Y-43180000D03*
X142240000Y-45720000D03*
X142240000Y-48260000D03*
X142240000Y-50800000D03*
X142240000Y-53340000D03*
X142240000Y-55880000D03*
X142240000Y-58420000D03*
X142240000Y-60960000D03*
X139700000Y-60960000D03*
X137160000Y-60960000D03*
X134620000Y-60960000D03*
X132080000Y-60960000D03*
X129540000Y-60960000D03*
X127000000Y-60960000D03*
X127000000Y-58420000D03*
X127000000Y-55880000D03*
X127000000Y-53340000D03*
X127000000Y-50800000D03*
X127000000Y-48260000D03*
X127000000Y-45720000D03*
X127000000Y-43180000D03*
X127000000Y-40640000D03*
X127000000Y-38100000D03*
X127000000Y-35560000D03*
X127000000Y-33020000D03*
D10*
X273050000Y-78740000D03*
X279400000Y-76200000D03*
X39370000Y-27940000D03*
X45720000Y-25400000D03*
X16510000Y-58420000D03*
X22860000Y-55880000D03*
X62230000Y-60960000D03*
X68580000Y-58420000D03*
X107950000Y-38100000D03*
X114300000Y-35560000D03*
X39370000Y-48260000D03*
X45720000Y-45720000D03*
X204470000Y-73660000D03*
X210820000Y-71120000D03*
X229870000Y-20320000D03*
X236220000Y-17780000D03*
D13*
X134620000Y-78740000D03*
X139620000Y-78740000D03*
D11*
X166207500Y-73420000D03*
X165107500Y-68820000D03*
X161107500Y-68820000D03*
X158107500Y-68820000D03*
D10*
X107950000Y-78740000D03*
X114300000Y-76200000D03*
X252730000Y-27940000D03*
X259080000Y-25400000D03*
X107950000Y-58420000D03*
X114300000Y-55880000D03*
X229870000Y-60960000D03*
X236220000Y-58420000D03*
X184150000Y-58420000D03*
X190500000Y-55880000D03*
X252730000Y-48260000D03*
X259080000Y-45720000D03*
X87630000Y-73660000D03*
X93980000Y-71120000D03*
X184150000Y-38100000D03*
X190500000Y-35560000D03*
D13*
X160020000Y-78740000D03*
X165020000Y-78740000D03*
D10*
X295910000Y-58420000D03*
X302260000Y-55880000D03*
X62230000Y-20320000D03*
X68580000Y-17780000D03*
X105747947Y-111314611D03*
X112360163Y-109567414D03*
X204470000Y-33190000D03*
X210820000Y-30650000D03*
X19050000Y-78740000D03*
X25400000Y-76200000D03*
X204470000Y-53340000D03*
X210820000Y-50800000D03*
X-3810000Y-58420000D03*
X2540000Y-55880000D03*
D12*
X172720000Y-33020000D03*
X172720000Y-35560000D03*
X172720000Y-38100000D03*
X172720000Y-40640000D03*
X172720000Y-43180000D03*
X172720000Y-45720000D03*
X172720000Y-48260000D03*
X172720000Y-50800000D03*
X172720000Y-53340000D03*
X172720000Y-55880000D03*
X172720000Y-58420000D03*
X172720000Y-60960000D03*
X170180000Y-60960000D03*
X167640000Y-60960000D03*
X165100000Y-60960000D03*
X162560000Y-60960000D03*
X160020000Y-60960000D03*
X157480000Y-60960000D03*
X157480000Y-58420000D03*
X157480000Y-55880000D03*
X157480000Y-53340000D03*
X157480000Y-50800000D03*
X157480000Y-48260000D03*
X157480000Y-45720000D03*
X157480000Y-43180000D03*
X157480000Y-40640000D03*
X157480000Y-38100000D03*
X157480000Y-35560000D03*
X157480000Y-33020000D03*
D10*
X87630000Y-53340000D03*
X93980000Y-50800000D03*
X165731040Y-133536277D03*
X170829357Y-128977630D03*
X186408851Y-112243255D03*
X192401971Y-108948317D03*
X184150000Y-78740000D03*
X190500000Y-76200000D03*
D14*
X248470499Y-35110499D02*
X259080000Y-45720000D01*
X204654809Y-48709501D02*
X218253811Y-35110499D01*
X204840998Y-49159002D02*
X179440998Y-49159002D01*
X177350499Y-48709501D02*
X204654809Y-48709501D01*
X172720000Y-53340000D02*
X177350499Y-48709501D01*
X236220000Y-38100000D02*
X233680000Y-35560000D01*
X218253811Y-35110499D02*
X248470499Y-35110499D01*
X233680000Y-35560000D02*
X218440000Y-35560000D01*
X218440000Y-35560000D02*
X204840998Y-49159002D01*
X179440998Y-49159002D02*
X172720000Y-55880000D01*
X204469119Y-48259501D02*
X219708620Y-33020000D01*
X175260499Y-48259501D02*
X204469119Y-48259501D01*
X219708620Y-33020000D02*
X259080000Y-33020000D01*
X260329999Y-26649999D02*
X259080000Y-25400000D01*
X259080000Y-33020000D02*
X260329999Y-31770001D01*
X260329999Y-31770001D02*
X260329999Y-26649999D01*
X172720000Y-50800000D02*
X175260499Y-48259501D01*
X172720000Y-48260000D02*
X173481999Y-47498001D01*
X226314465Y-25145535D02*
X229850001Y-25145535D01*
X173481999Y-47498001D02*
X203961999Y-47498001D01*
X203961999Y-47498001D02*
X226314465Y-25145535D01*
X229850001Y-25145535D02*
X229850001Y-22567386D01*
X229850001Y-22567386D02*
X234637387Y-17780000D01*
X234637387Y-17780000D02*
X236220000Y-17780000D01*
X165100000Y-60960000D02*
X168831497Y-64691497D01*
X210897123Y-64691497D02*
X223147622Y-52440998D01*
X249555690Y-55880000D02*
X256540000Y-55880000D01*
X168831497Y-64691497D02*
X210897123Y-64691497D01*
X223147622Y-52440998D02*
X246116688Y-52440998D01*
X246116688Y-52440998D02*
X249555690Y-55880000D01*
X256540000Y-55880000D02*
X276860000Y-76200000D01*
X276860000Y-76200000D02*
X279400000Y-76200000D01*
X142240000Y-53340000D02*
X141153000Y-52253000D01*
X141153000Y-52253000D02*
X114484380Y-52253000D01*
X114484380Y-52253000D02*
X112132378Y-49900998D01*
X51249501Y-35110499D02*
X45720000Y-40640000D01*
X112132378Y-49900998D02*
X98796688Y-49900998D01*
X98796688Y-49900998D02*
X86604693Y-37709003D01*
X45720000Y-40640000D02*
X45720000Y-45720000D01*
X86604693Y-37709003D02*
X83702087Y-37709003D01*
X83702087Y-37709003D02*
X81103583Y-35110499D01*
X81103583Y-35110499D02*
X51249501Y-35110499D01*
X142240000Y-48260000D02*
X140891497Y-46911497D01*
X79385462Y-32120998D02*
X78476688Y-32120998D01*
X140891497Y-46911497D02*
X98747031Y-46911497D01*
X84074465Y-36810001D02*
X79385462Y-32120998D01*
X98747031Y-46911497D02*
X88645535Y-36810001D01*
X68580000Y-22224310D02*
X68580000Y-17780000D01*
X88645535Y-36810001D02*
X84074465Y-36810001D01*
X78476688Y-32120998D02*
X68580000Y-22224310D01*
X116388690Y-54793000D02*
X111946189Y-50350499D01*
X98982877Y-49451497D02*
X86790882Y-37259502D01*
X141153000Y-54793000D02*
X116388690Y-54793000D01*
X83555896Y-38198502D02*
X80917394Y-35560000D01*
X81289772Y-34660998D02*
X54980998Y-34660998D01*
X83888276Y-37259502D02*
X81289772Y-34660998D01*
X142240000Y-55880000D02*
X141153000Y-54793000D01*
X142240000Y-50800000D02*
X140891497Y-49451497D01*
X54980998Y-34660998D02*
X45720000Y-25400000D01*
X86790882Y-37259502D02*
X83888276Y-37259502D01*
X86458502Y-38198502D02*
X83555896Y-38198502D01*
X140891497Y-49451497D02*
X98982877Y-49451497D01*
X111946189Y-50350499D02*
X98610499Y-50350499D01*
X98610499Y-50350499D02*
X86458502Y-38198502D01*
X80917394Y-35560000D02*
X71120000Y-35560000D01*
X71120000Y-35560000D02*
X68580000Y-38100000D01*
X203200000Y-73660000D02*
X204470000Y-73660000D01*
X181610000Y-35560000D02*
X184150000Y-38100000D01*
X172720000Y-35560000D02*
X181610000Y-35560000D01*
X184150000Y-78740000D02*
X185399999Y-79989999D01*
X185399999Y-79989999D02*
X185399999Y-111234403D01*
X186408851Y-112243255D02*
X186892106Y-111760000D01*
X185399999Y-111234403D02*
X186408851Y-112243255D01*
X156393000Y-67105500D02*
X158107500Y-68820000D01*
X157480000Y-58420000D02*
X156393000Y-59507000D01*
X156393000Y-59507000D02*
X156393000Y-67105500D01*
X155389001Y-72193534D02*
X159395467Y-76200000D01*
X157480000Y-55880000D02*
X155389001Y-57970999D01*
X159395467Y-76200000D02*
X190500000Y-76200000D01*
X155389001Y-57970999D02*
X155389001Y-72193534D01*
X172720000Y-60960000D02*
X177800000Y-55880000D01*
X177800000Y-55880000D02*
X190500000Y-55880000D01*
X202567070Y-50800000D02*
X210820000Y-50800000D01*
X172720000Y-58420000D02*
X178991497Y-52148503D01*
X178991497Y-52148503D02*
X201218567Y-52148503D01*
X201218567Y-52148503D02*
X202567070Y-50800000D01*
X235773550Y-38546450D02*
X236220000Y-38100000D01*
X210820000Y-37412061D02*
X210820000Y-30650000D01*
X194944310Y-45720000D02*
X202559309Y-38105001D01*
X202559309Y-38105001D02*
X210127060Y-38105001D01*
X172720000Y-45720000D02*
X194944310Y-45720000D01*
X210127060Y-38105001D02*
X210820000Y-37412061D01*
X190500000Y-43180000D02*
X172720000Y-43180000D01*
X190500000Y-35560000D02*
X190500000Y-43180000D01*
X246302877Y-51991497D02*
X249741879Y-55430499D01*
X210710934Y-64241996D02*
X222961433Y-51991497D01*
X167640000Y-60960000D02*
X170921996Y-64241996D01*
X281490499Y-55430499D02*
X281940000Y-55880000D01*
X249741879Y-55430499D02*
X281490499Y-55430499D01*
X170921996Y-64241996D02*
X210710934Y-64241996D01*
X222961433Y-51991497D02*
X246302877Y-51991497D01*
X222775244Y-51541996D02*
X246489066Y-51541996D01*
X299720000Y-53340000D02*
X302260000Y-55880000D01*
X249928068Y-54980998D02*
X267599002Y-54980998D01*
X170180000Y-60960000D02*
X172720000Y-63500000D01*
X172720000Y-63500000D02*
X210817240Y-63500000D01*
X269240000Y-53340000D02*
X299720000Y-53340000D01*
X210817240Y-63500000D02*
X222775244Y-51541996D01*
X267599002Y-54980998D02*
X269240000Y-53340000D01*
X246489066Y-51541996D02*
X249928068Y-54980998D01*
X166740998Y-65140998D02*
X211083312Y-65140998D01*
X211083312Y-65140998D02*
X223333811Y-52890499D01*
X162560000Y-60960000D02*
X166740998Y-65140998D01*
X223333811Y-52890499D02*
X245930499Y-52890499D01*
X245930499Y-52890499D02*
X259080000Y-66040000D01*
X208915690Y-66040000D02*
X210820000Y-66040000D01*
X208466189Y-65590499D02*
X208915690Y-66040000D01*
X164650499Y-65590499D02*
X208466189Y-65590499D01*
X218440000Y-58420000D02*
X236220000Y-58420000D01*
X210820000Y-66040000D02*
X218440000Y-58420000D01*
X160020000Y-60960000D02*
X164650499Y-65590499D01*
X162560000Y-66040000D02*
X208280000Y-66040000D01*
X157480000Y-60960000D02*
X162560000Y-66040000D01*
X210820000Y-68580000D02*
X210820000Y-71120000D01*
X208280000Y-66040000D02*
X210820000Y-68580000D01*
X185420000Y-119380000D02*
X192137516Y-119380000D01*
X193651970Y-117865546D02*
X193651970Y-110198316D01*
X183329501Y-117289501D02*
X185420000Y-119380000D01*
X177230690Y-80075000D02*
X183329501Y-86173811D01*
X183329501Y-86173811D02*
X183329501Y-117289501D01*
X193651970Y-110198316D02*
X192401971Y-108948317D01*
X192137516Y-119380000D02*
X193651970Y-117865546D01*
X154939501Y-55880499D02*
X154939501Y-78740207D01*
X154939501Y-78740207D02*
X156274294Y-80075000D01*
X156274294Y-80075000D02*
X177230690Y-80075000D01*
X157480000Y-53340000D02*
X154939501Y-55880499D01*
X157480000Y-50800000D02*
X154490000Y-53790000D01*
X156088105Y-80524501D02*
X177044501Y-80524501D01*
X154490000Y-53790000D02*
X154490000Y-78926396D01*
X154490000Y-78926396D02*
X156088105Y-80524501D01*
X182880000Y-116926987D02*
X170829357Y-128977630D01*
X177044501Y-80524501D02*
X182880000Y-86360000D01*
X182880000Y-86360000D02*
X182880000Y-116926987D01*
X145229501Y-65590499D02*
X144780000Y-66040000D01*
X144780000Y-66040000D02*
X139700000Y-66040000D01*
X134580000Y-71160000D02*
X134580000Y-73420000D01*
X145229501Y-43629501D02*
X145229501Y-65590499D01*
X142240000Y-40640000D02*
X145229501Y-43629501D01*
X139700000Y-66040000D02*
X134580000Y-71160000D01*
X139700000Y-81280000D02*
X137160000Y-81280000D01*
X138472282Y-73420000D02*
X138580000Y-73420000D01*
X134620000Y-77272282D02*
X138472282Y-73420000D01*
X134620000Y-78740000D02*
X134620000Y-77272282D01*
X133533000Y-34107000D02*
X143327000Y-34107000D01*
X143327000Y-34107000D02*
X146128503Y-36908503D01*
X137160000Y-81280000D02*
X134620000Y-78740000D01*
X127000000Y-40640000D02*
X133533000Y-34107000D01*
X146128503Y-36908503D02*
X146128503Y-74851497D01*
X146128503Y-74851497D02*
X139700000Y-81280000D01*
X144966189Y-73473811D02*
X139700000Y-78740000D01*
X145679002Y-66412378D02*
X144780000Y-67311380D01*
X145679002Y-41539002D02*
X145679002Y-66412378D01*
X142240000Y-38100000D02*
X145679002Y-41539002D01*
X144780000Y-70933811D02*
X144966189Y-71120000D01*
X144780000Y-67311380D02*
X144780000Y-70933811D01*
X144966189Y-71120000D02*
X144966189Y-73473811D01*
X141153000Y-42093000D02*
X120833000Y-42093000D01*
X142240000Y-43180000D02*
X141153000Y-42093000D01*
X120833000Y-42093000D02*
X114300000Y-35560000D01*
X142240000Y-45720000D02*
X141153000Y-44633000D01*
X141153000Y-44633000D02*
X118293000Y-44633000D01*
X114135001Y-37952305D02*
X109202696Y-33020000D01*
X96520000Y-33020000D02*
X93980000Y-30480000D01*
X114135001Y-40475001D02*
X114135001Y-37952305D01*
X118293000Y-44633000D02*
X114135001Y-40475001D01*
X109202696Y-33020000D02*
X96520000Y-33020000D01*
X111760000Y-50800000D02*
X93980000Y-50800000D01*
X118031498Y-57071498D02*
X111760000Y-50800000D01*
X140891498Y-57071498D02*
X118031498Y-57071498D01*
X142240000Y-58420000D02*
X140891498Y-57071498D01*
X117927000Y-59507000D02*
X114300000Y-55880000D01*
X142240000Y-60324310D02*
X139886189Y-57970499D01*
X142240000Y-60960000D02*
X142240000Y-60324310D01*
X128453000Y-59507000D02*
X117927000Y-59507000D01*
X129989501Y-57970499D02*
X128453000Y-59507000D01*
X139886189Y-57970499D02*
X129989501Y-57970499D01*
X139700000Y-60960000D02*
X135069501Y-65590499D01*
X7365535Y-60705535D02*
X2540000Y-55880000D01*
X60960000Y-78740000D02*
X24364466Y-78740000D01*
X98873811Y-65590499D02*
X97218811Y-67245499D01*
X24364466Y-78740000D02*
X7365535Y-61741069D01*
X97218811Y-67245499D02*
X72454501Y-67245499D01*
X72454501Y-67245499D02*
X60960000Y-78740000D01*
X135069501Y-65590499D02*
X98873811Y-65590499D01*
X7365535Y-61741069D02*
X7365535Y-60705535D01*
X71120000Y-66040000D02*
X58869501Y-78290499D01*
X58869501Y-78290499D02*
X24550655Y-78290499D01*
X97788620Y-66040000D02*
X71120000Y-66040000D01*
X22860000Y-76599844D02*
X22860000Y-55880000D01*
X24550655Y-78290499D02*
X22860000Y-76599844D01*
X132979002Y-65140998D02*
X98687622Y-65140998D01*
X137160000Y-60960000D02*
X132979002Y-65140998D01*
X98687622Y-65140998D02*
X97788620Y-66040000D01*
X98501433Y-64691497D02*
X97602431Y-65590499D01*
X130888503Y-64691497D02*
X98501433Y-64691497D01*
X97602431Y-65590499D02*
X70933811Y-65590499D01*
X70933811Y-65590499D02*
X68495606Y-68028704D01*
X41837397Y-68028704D02*
X39848693Y-66040000D01*
X134620000Y-60960000D02*
X130888503Y-64691497D01*
X68495606Y-68028704D02*
X41837397Y-68028704D01*
X39848693Y-66040000D02*
X35560000Y-66040000D01*
X35560000Y-66040000D02*
X25400000Y-76200000D01*
X70747622Y-65140998D02*
X69848620Y-66040000D01*
X97416242Y-65140998D02*
X70747622Y-65140998D01*
X128798004Y-64241996D02*
X98315244Y-64241996D01*
X132080000Y-60960000D02*
X128798004Y-64241996D01*
X98315244Y-64241996D02*
X97416242Y-65140998D01*
X69848620Y-66040000D02*
X45720000Y-66040000D01*
X126707505Y-63792495D02*
X73952495Y-63792495D01*
X73952495Y-63792495D02*
X68580000Y-58420000D01*
X129540000Y-60960000D02*
X126707505Y-63792495D01*
X137160000Y-66040000D02*
X99060000Y-66040000D01*
X99060000Y-66040000D02*
X93980000Y-71120000D01*
X141143277Y-59863277D02*
X141143277Y-62056723D01*
X139700000Y-58420000D02*
X141143277Y-59863277D01*
X130542749Y-58420000D02*
X139700000Y-58420000D01*
X128002749Y-60960000D02*
X130542749Y-58420000D01*
X127000000Y-60960000D02*
X128002749Y-60960000D01*
X141143277Y-62056723D02*
X137160000Y-66040000D01*
M02*
