M48
; DRILL file {KiCad 7.0.1} date Mon 24 Apr 2023 10:19:17 PM CEST
; FORMAT={-:-/ absolute / metric / decimal}
; #@! TF.CreationDate,2023-04-24T22:19:17+02:00
; #@! TF.GenerationSoftware,Kicad,Pcbnew,7.0.1
; #@! TF.FileFunction,Plated,1,2,PTH
FMAT,2
METRIC
; #@! TA.AperFunction,Plated,PTH,ComponentDrill
T1C0.762
; #@! TA.AperFunction,Plated,PTH,ComponentDrill
T2C0.900
; #@! TA.AperFunction,Plated,PTH,ComponentDrill
T3C1.000
; #@! TA.AperFunction,Plated,PTH,ComponentDrill
T4C1.500
%
G90
G05
T1
X127.0Y-33.02
X127.0Y-35.56
X127.0Y-38.1
X127.0Y-40.64
X127.0Y-43.18
X127.0Y-45.72
X127.0Y-48.26
X127.0Y-50.8
X127.0Y-53.34
X127.0Y-55.88
X127.0Y-58.42
X127.0Y-60.96
X127.0Y-63.5
X129.54Y-63.5
X132.08Y-63.5
X134.62Y-63.5
X137.16Y-63.5
X139.7Y-63.5
X142.24Y-33.02
X142.24Y-35.56
X142.24Y-38.1
X142.24Y-40.64
X142.24Y-43.18
X142.24Y-45.72
X142.24Y-48.26
X142.24Y-50.8
X142.24Y-53.34
X142.24Y-55.88
X142.24Y-58.42
X142.24Y-60.96
X142.24Y-63.5
X157.48Y-33.02
X157.48Y-35.56
X157.48Y-38.1
X157.48Y-40.64
X157.48Y-43.18
X157.48Y-45.72
X157.48Y-48.26
X157.48Y-50.8
X157.48Y-53.34
X157.48Y-55.88
X157.48Y-58.42
X157.48Y-60.96
X157.48Y-63.5
X160.02Y-63.5
X162.56Y-63.5
X165.1Y-63.5
X167.64Y-63.5
X170.18Y-63.5
X172.72Y-33.02
X172.72Y-35.56
X172.72Y-38.1
X172.72Y-40.64
X172.72Y-43.18
X172.72Y-45.72
X172.72Y-48.26
X172.72Y-50.8
X172.72Y-53.34
X172.72Y-55.88
X172.72Y-58.42
X172.72Y-60.96
X172.72Y-63.5
T3
X131.064Y-69.088
X133.604Y-69.088
X136.144Y-69.088
X138.684Y-69.088
X161.036Y-69.088
X163.576Y-69.088
X166.116Y-69.088
X168.656Y-69.088
T4
X5.842Y-58.928
X12.192Y-56.388
X24.13Y-78.74
X25.146Y-58.928
X30.48Y-76.2
X31.496Y-56.388
X44.45Y-27.432
X44.45Y-46.736
X44.45Y-66.04
X50.8Y-24.892
X50.8Y-44.196
X50.8Y-63.5
X67.31Y-22.352
X67.31Y-41.656
X67.31Y-60.96
X73.66Y-19.812
X73.66Y-39.116
X73.66Y-58.42
X91.186Y-34.036
X91.186Y-53.34
X91.186Y-72.644
X97.536Y-31.496
X97.536Y-50.8
X97.536Y-70.104
X109.304Y-111.315
X110.49Y-39.116
X110.49Y-58.42
X110.49Y-77.724
X115.916Y-109.567
X116.84Y-36.576
X116.84Y-55.88
X116.84Y-75.184
X128.3Y-127.467
X134.538Y-130.27
X166.241Y-133.056
X168.825Y-126.724
X181.61Y-39.116
X181.61Y-58.42
X181.61Y-77.724
X182.853Y-112.243
X187.96Y-36.576
X187.96Y-55.88
X187.96Y-75.184
X188.846Y-108.948
X200.914Y-34.036
X200.914Y-53.34
X200.914Y-72.644
X207.264Y-31.496
X207.264Y-50.8
X207.264Y-70.104
X224.79Y-22.352
X224.79Y-41.656
X224.79Y-60.96
X231.14Y-19.812
X231.14Y-39.116
X231.14Y-58.42
X247.65Y-27.432
X247.65Y-46.736
X247.65Y-66.04
X254.0Y-24.892
X254.0Y-44.196
X254.0Y-63.5
X266.954Y-58.928
X267.97Y-78.74
X273.304Y-56.388
X274.32Y-76.2
X286.258Y-58.928
X292.608Y-56.388
T2
X132.232Y-72.376G85X131.832Y-72.376
G05
X133.332Y-76.976G85X132.932Y-76.976
G05
X137.332Y-76.976G85X136.932Y-76.976
G05
X140.332Y-76.976G85X139.932Y-76.976
G05
X159.431Y-72.376G85X159.832Y-72.376
G05
X162.431Y-72.376G85X162.832Y-72.376
G05
X166.431Y-72.376G85X166.832Y-72.376
G05
X167.531Y-76.976G85X167.931Y-76.976
G05
T0
M30
