G04 #@! TF.GenerationSoftware,KiCad,Pcbnew,(6.0.7)*
G04 #@! TF.CreationDate,2022-09-16T15:10:19+02:00*
G04 #@! TF.ProjectId,yeti,79657469-2e6b-4696-9361-645f70636258,rev?*
G04 #@! TF.SameCoordinates,Original*
G04 #@! TF.FileFunction,Legend,Bot*
G04 #@! TF.FilePolarity,Positive*
%FSLAX46Y46*%
G04 Gerber Fmt 4.6, Leading zero omitted, Abs format (unit mm)*
G04 Created by KiCad (PCBNEW (6.0.7)) date 2022-09-16 15:10:19*
%MOMM*%
%LPD*%
G01*
G04 APERTURE LIST*
%ADD10C,0.200000*%
%ADD11C,0.150000*%
%ADD12C,4.300000*%
%ADD13C,2.200000*%
%ADD14C,4.000000*%
%ADD15C,1.750000*%
%ADD16C,2.500000*%
%ADD17C,0.800000*%
%ADD18O,2.000000X1.600000*%
%ADD19C,1.524000*%
%ADD20C,1.200000*%
%ADD21R,1.501140X0.899160*%
G04 APERTURE END LIST*
D10*
X244638095Y-24982380D02*
X244638095Y-23982380D01*
X244400000Y-23982380D01*
X244257142Y-24030000D01*
X244161904Y-24125238D01*
X244114285Y-24220476D01*
X244066666Y-24410952D01*
X244066666Y-24553809D01*
X244114285Y-24744285D01*
X244161904Y-24839523D01*
X244257142Y-24934761D01*
X244400000Y-24982380D01*
X244638095Y-24982380D01*
X243733333Y-23982380D02*
X243114285Y-23982380D01*
X243447619Y-24363333D01*
X243304761Y-24363333D01*
X243209523Y-24410952D01*
X243161904Y-24458571D01*
X243114285Y-24553809D01*
X243114285Y-24791904D01*
X243161904Y-24887142D01*
X243209523Y-24934761D01*
X243304761Y-24982380D01*
X243590476Y-24982380D01*
X243685714Y-24934761D01*
X243733333Y-24887142D01*
X97794285Y-88482380D02*
X97794285Y-87482380D01*
X97556190Y-87482380D01*
X97413333Y-87530000D01*
X97318095Y-87625238D01*
X97270476Y-87720476D01*
X97222857Y-87910952D01*
X97222857Y-88053809D01*
X97270476Y-88244285D01*
X97318095Y-88339523D01*
X97413333Y-88434761D01*
X97556190Y-88482380D01*
X97794285Y-88482380D01*
X96270476Y-88482380D02*
X96841904Y-88482380D01*
X96556190Y-88482380D02*
X96556190Y-87482380D01*
X96651428Y-87625238D01*
X96746666Y-87720476D01*
X96841904Y-87768095D01*
X95651428Y-87482380D02*
X95556190Y-87482380D01*
X95460952Y-87530000D01*
X95413333Y-87577619D01*
X95365714Y-87672857D01*
X95318095Y-87863333D01*
X95318095Y-88101428D01*
X95365714Y-88291904D01*
X95413333Y-88387142D01*
X95460952Y-88434761D01*
X95556190Y-88482380D01*
X95651428Y-88482380D01*
X95746666Y-88434761D01*
X95794285Y-88387142D01*
X95841904Y-88291904D01*
X95889523Y-88101428D01*
X95889523Y-87863333D01*
X95841904Y-87672857D01*
X95794285Y-87577619D01*
X95746666Y-87530000D01*
X95651428Y-87482380D01*
X203998095Y-88482380D02*
X203998095Y-87482380D01*
X203760000Y-87482380D01*
X203617142Y-87530000D01*
X203521904Y-87625238D01*
X203474285Y-87720476D01*
X203426666Y-87910952D01*
X203426666Y-88053809D01*
X203474285Y-88244285D01*
X203521904Y-88339523D01*
X203617142Y-88434761D01*
X203760000Y-88482380D01*
X203998095Y-88482380D01*
X202569523Y-87815714D02*
X202569523Y-88482380D01*
X202807619Y-87434761D02*
X203045714Y-88149047D01*
X202426666Y-88149047D01*
X56678095Y-24982380D02*
X56678095Y-23982380D01*
X56440000Y-23982380D01*
X56297142Y-24030000D01*
X56201904Y-24125238D01*
X56154285Y-24220476D01*
X56106666Y-24410952D01*
X56106666Y-24553809D01*
X56154285Y-24744285D01*
X56201904Y-24839523D01*
X56297142Y-24934761D01*
X56440000Y-24982380D01*
X56678095Y-24982380D01*
X55630476Y-24982380D02*
X55440000Y-24982380D01*
X55344761Y-24934761D01*
X55297142Y-24887142D01*
X55201904Y-24744285D01*
X55154285Y-24553809D01*
X55154285Y-24172857D01*
X55201904Y-24077619D01*
X55249523Y-24030000D01*
X55344761Y-23982380D01*
X55535238Y-23982380D01*
X55630476Y-24030000D01*
X55678095Y-24077619D01*
X55725714Y-24172857D01*
X55725714Y-24410952D01*
X55678095Y-24506190D01*
X55630476Y-24553809D01*
X55535238Y-24601428D01*
X55344761Y-24601428D01*
X55249523Y-24553809D01*
X55201904Y-24506190D01*
X55154285Y-24410952D01*
X11434285Y-63082380D02*
X11434285Y-62082380D01*
X11196190Y-62082380D01*
X11053333Y-62130000D01*
X10958095Y-62225238D01*
X10910476Y-62320476D01*
X10862857Y-62510952D01*
X10862857Y-62653809D01*
X10910476Y-62844285D01*
X10958095Y-62939523D01*
X11053333Y-63034761D01*
X11196190Y-63082380D01*
X11434285Y-63082380D01*
X9910476Y-63082380D02*
X10481904Y-63082380D01*
X10196190Y-63082380D02*
X10196190Y-62082380D01*
X10291428Y-62225238D01*
X10386666Y-62320476D01*
X10481904Y-62368095D01*
X8958095Y-63082380D02*
X9529523Y-63082380D01*
X9243809Y-63082380D02*
X9243809Y-62082380D01*
X9339047Y-62225238D01*
X9434285Y-62320476D01*
X9529523Y-62368095D01*
X244638095Y-70702380D02*
X244638095Y-69702380D01*
X244400000Y-69702380D01*
X244257142Y-69750000D01*
X244161904Y-69845238D01*
X244114285Y-69940476D01*
X244066666Y-70130952D01*
X244066666Y-70273809D01*
X244114285Y-70464285D01*
X244161904Y-70559523D01*
X244257142Y-70654761D01*
X244400000Y-70702380D01*
X244638095Y-70702380D01*
X243685714Y-69797619D02*
X243638095Y-69750000D01*
X243542857Y-69702380D01*
X243304761Y-69702380D01*
X243209523Y-69750000D01*
X243161904Y-69797619D01*
X243114285Y-69892857D01*
X243114285Y-69988095D01*
X243161904Y-70130952D01*
X243733333Y-70702380D01*
X243114285Y-70702380D01*
X102398095Y-35142380D02*
X102398095Y-34142380D01*
X102160000Y-34142380D01*
X102017142Y-34190000D01*
X101921904Y-34285238D01*
X101874285Y-34380476D01*
X101826666Y-34570952D01*
X101826666Y-34713809D01*
X101874285Y-34904285D01*
X101921904Y-34999523D01*
X102017142Y-35094761D01*
X102160000Y-35142380D01*
X102398095Y-35142380D01*
X101493333Y-34142380D02*
X100826666Y-34142380D01*
X101255238Y-35142380D01*
X198918095Y-35142380D02*
X198918095Y-34142380D01*
X198680000Y-34142380D01*
X198537142Y-34190000D01*
X198441904Y-34285238D01*
X198394285Y-34380476D01*
X198346666Y-34570952D01*
X198346666Y-34713809D01*
X198394285Y-34904285D01*
X198441904Y-34999523D01*
X198537142Y-35094761D01*
X198680000Y-35142380D01*
X198918095Y-35142380D01*
X197394285Y-35142380D02*
X197965714Y-35142380D01*
X197680000Y-35142380D02*
X197680000Y-34142380D01*
X197775238Y-34285238D01*
X197870476Y-34380476D01*
X197965714Y-34428095D01*
X113034285Y-126582380D02*
X113034285Y-125582380D01*
X112796190Y-125582380D01*
X112653333Y-125630000D01*
X112558095Y-125725238D01*
X112510476Y-125820476D01*
X112462857Y-126010952D01*
X112462857Y-126153809D01*
X112510476Y-126344285D01*
X112558095Y-126439523D01*
X112653333Y-126534761D01*
X112796190Y-126582380D01*
X113034285Y-126582380D01*
X111510476Y-126582380D02*
X112081904Y-126582380D01*
X111796190Y-126582380D02*
X111796190Y-125582380D01*
X111891428Y-125725238D01*
X111986666Y-125820476D01*
X112081904Y-125868095D01*
X111129523Y-125677619D02*
X111081904Y-125630000D01*
X110986666Y-125582380D01*
X110748571Y-125582380D01*
X110653333Y-125630000D01*
X110605714Y-125677619D01*
X110558095Y-125772857D01*
X110558095Y-125868095D01*
X110605714Y-126010952D01*
X111177142Y-126582380D01*
X110558095Y-126582380D01*
X290358095Y-63082380D02*
X290358095Y-62082380D01*
X290120000Y-62082380D01*
X289977142Y-62130000D01*
X289881904Y-62225238D01*
X289834285Y-62320476D01*
X289786666Y-62510952D01*
X289786666Y-62653809D01*
X289834285Y-62844285D01*
X289881904Y-62939523D01*
X289977142Y-63034761D01*
X290120000Y-63082380D01*
X290358095Y-63082380D01*
X288881904Y-62082380D02*
X289358095Y-62082380D01*
X289405714Y-62558571D01*
X289358095Y-62510952D01*
X289262857Y-62463333D01*
X289024761Y-62463333D01*
X288929523Y-62510952D01*
X288881904Y-62558571D01*
X288834285Y-62653809D01*
X288834285Y-62891904D01*
X288881904Y-62987142D01*
X288929523Y-63034761D01*
X289024761Y-63082380D01*
X289262857Y-63082380D01*
X289358095Y-63034761D01*
X289405714Y-62987142D01*
X188758095Y-126582380D02*
X188758095Y-125582380D01*
X188520000Y-125582380D01*
X188377142Y-125630000D01*
X188281904Y-125725238D01*
X188234285Y-125820476D01*
X188186666Y-126010952D01*
X188186666Y-126153809D01*
X188234285Y-126344285D01*
X188281904Y-126439523D01*
X188377142Y-126534761D01*
X188520000Y-126582380D01*
X188758095Y-126582380D01*
X187329523Y-125582380D02*
X187520000Y-125582380D01*
X187615238Y-125630000D01*
X187662857Y-125677619D01*
X187758095Y-125820476D01*
X187805714Y-126010952D01*
X187805714Y-126391904D01*
X187758095Y-126487142D01*
X187710476Y-126534761D01*
X187615238Y-126582380D01*
X187424761Y-126582380D01*
X187329523Y-126534761D01*
X187281904Y-126487142D01*
X187234285Y-126391904D01*
X187234285Y-126153809D01*
X187281904Y-126058571D01*
X187329523Y-126010952D01*
X187424761Y-125963333D01*
X187615238Y-125963333D01*
X187710476Y-126010952D01*
X187758095Y-126058571D01*
X187805714Y-126153809D01*
X56678095Y-70702380D02*
X56678095Y-69702380D01*
X56440000Y-69702380D01*
X56297142Y-69750000D01*
X56201904Y-69845238D01*
X56154285Y-69940476D01*
X56106666Y-70130952D01*
X56106666Y-70273809D01*
X56154285Y-70464285D01*
X56201904Y-70559523D01*
X56297142Y-70654761D01*
X56440000Y-70702380D01*
X56678095Y-70702380D01*
X55535238Y-70130952D02*
X55630476Y-70083333D01*
X55678095Y-70035714D01*
X55725714Y-69940476D01*
X55725714Y-69892857D01*
X55678095Y-69797619D01*
X55630476Y-69750000D01*
X55535238Y-69702380D01*
X55344761Y-69702380D01*
X55249523Y-69750000D01*
X55201904Y-69797619D01*
X55154285Y-69892857D01*
X55154285Y-69940476D01*
X55201904Y-70035714D01*
X55249523Y-70083333D01*
X55344761Y-70130952D01*
X55535238Y-70130952D01*
X55630476Y-70178571D01*
X55678095Y-70226190D01*
X55725714Y-70321428D01*
X55725714Y-70511904D01*
X55678095Y-70607142D01*
X55630476Y-70654761D01*
X55535238Y-70702380D01*
X55344761Y-70702380D01*
X55249523Y-70654761D01*
X55201904Y-70607142D01*
X55154285Y-70511904D01*
X55154285Y-70321428D01*
X55201904Y-70226190D01*
X55249523Y-70178571D01*
X55344761Y-70130952D01*
D11*
X243640000Y-30440000D02*
X241340000Y-28190000D01*
D10*
X246339360Y-30439360D02*
X246339360Y-25440640D01*
X246340000Y-25440000D02*
X241340000Y-25440000D01*
X241640000Y-30440000D02*
X246340000Y-30440000D01*
X241340000Y-30190000D02*
X241340000Y-25440000D01*
X241640000Y-30440000D02*
X241340000Y-30190000D01*
X99019360Y-93939360D02*
X99019360Y-88940640D01*
X94020000Y-93690000D02*
X94020000Y-88940000D01*
X94320000Y-93940000D02*
X94020000Y-93690000D01*
D11*
X96320000Y-93940000D02*
X94020000Y-91690000D01*
D10*
X94320000Y-93940000D02*
X99020000Y-93940000D01*
X99020000Y-88940000D02*
X94020000Y-88940000D01*
X205699360Y-93939360D02*
X205699360Y-88940640D01*
X200700000Y-93690000D02*
X200700000Y-88940000D01*
D11*
X203000000Y-93940000D02*
X200700000Y-91690000D01*
D10*
X205700000Y-88940000D02*
X200700000Y-88940000D01*
X201000000Y-93940000D02*
X205700000Y-93940000D01*
X201000000Y-93940000D02*
X200700000Y-93690000D01*
X53680000Y-30440000D02*
X58380000Y-30440000D01*
X58379360Y-30439360D02*
X58379360Y-25440640D01*
X58380000Y-25440000D02*
X53380000Y-25440000D01*
D11*
X55680000Y-30440000D02*
X53380000Y-28190000D01*
D10*
X53680000Y-30440000D02*
X53380000Y-30190000D01*
X53380000Y-30190000D02*
X53380000Y-25440000D01*
D11*
X9960000Y-68540000D02*
X7660000Y-66290000D01*
D10*
X7960000Y-68540000D02*
X7660000Y-68290000D01*
X7660000Y-68290000D02*
X7660000Y-63540000D01*
X12660000Y-63540000D02*
X7660000Y-63540000D01*
X12659360Y-68539360D02*
X12659360Y-63540640D01*
X7960000Y-68540000D02*
X12660000Y-68540000D01*
D11*
X243640000Y-76160000D02*
X241340000Y-73910000D01*
D10*
X241640000Y-76160000D02*
X241340000Y-75910000D01*
X246339360Y-76159360D02*
X246339360Y-71160640D01*
X246340000Y-71160000D02*
X241340000Y-71160000D01*
X241640000Y-76160000D02*
X246340000Y-76160000D01*
X241340000Y-75910000D02*
X241340000Y-71160000D01*
X99400000Y-40600000D02*
X104100000Y-40600000D01*
X99100000Y-40350000D02*
X99100000Y-35600000D01*
X104099360Y-40599360D02*
X104099360Y-35600640D01*
X104100000Y-35600000D02*
X99100000Y-35600000D01*
D11*
X101400000Y-40600000D02*
X99100000Y-38350000D01*
D10*
X99400000Y-40600000D02*
X99100000Y-40350000D01*
X195620000Y-40350000D02*
X195620000Y-35600000D01*
X200619360Y-40599360D02*
X200619360Y-35600640D01*
X195920000Y-40600000D02*
X195620000Y-40350000D01*
X195920000Y-40600000D02*
X200620000Y-40600000D01*
D11*
X197920000Y-40600000D02*
X195620000Y-38350000D01*
D10*
X200620000Y-35600000D02*
X195620000Y-35600000D01*
X109560000Y-132040000D02*
X109260000Y-131790000D01*
X114259360Y-132039360D02*
X114259360Y-127040640D01*
X114260000Y-127040000D02*
X109260000Y-127040000D01*
X109260000Y-131790000D02*
X109260000Y-127040000D01*
X109560000Y-132040000D02*
X114260000Y-132040000D01*
D11*
X111560000Y-132040000D02*
X109260000Y-129790000D01*
D10*
X287360000Y-68540000D02*
X292060000Y-68540000D01*
X292059360Y-68539360D02*
X292059360Y-63540640D01*
X292060000Y-63540000D02*
X287060000Y-63540000D01*
X287360000Y-68540000D02*
X287060000Y-68290000D01*
D11*
X289360000Y-68540000D02*
X287060000Y-66290000D01*
D10*
X287060000Y-68290000D02*
X287060000Y-63540000D01*
X190459360Y-132039360D02*
X190459360Y-127040640D01*
X185460000Y-131790000D02*
X185460000Y-127040000D01*
X190460000Y-127040000D02*
X185460000Y-127040000D01*
X185760000Y-132040000D02*
X185460000Y-131790000D01*
D11*
X187760000Y-132040000D02*
X185460000Y-129790000D01*
D10*
X185760000Y-132040000D02*
X190460000Y-132040000D01*
X58379360Y-76159360D02*
X58379360Y-71160640D01*
X53680000Y-76160000D02*
X53380000Y-75910000D01*
D11*
X55680000Y-76160000D02*
X53380000Y-73910000D01*
D10*
X53380000Y-75910000D02*
X53380000Y-71160000D01*
X53680000Y-76160000D02*
X58380000Y-76160000D01*
X58380000Y-71160000D02*
X53380000Y-71160000D01*
%LPC*%
D12*
X220980000Y-40640000D03*
X220980000Y-40640000D03*
X246380000Y-40640000D03*
X246380000Y-40640000D03*
X266700000Y-60960000D03*
X198120000Y-55880000D03*
X198120000Y-55880000D03*
X198120000Y-86360000D03*
X198120000Y-86360000D03*
D13*
X154940000Y-83820000D03*
X172720000Y-83820000D03*
D12*
X78740000Y-40640000D03*
X78740000Y-40640000D03*
X53340000Y-40640000D03*
X53340000Y-40640000D03*
X134620000Y-119380000D03*
X134620000Y-119380000D03*
X165100000Y-119380000D03*
X101600000Y-86360000D03*
X101600000Y-86360000D03*
X101600000Y-55880000D03*
X101600000Y-55880000D03*
X33020000Y-60960000D03*
D13*
X144780000Y-83820000D03*
X144780000Y-83820000D03*
X127000000Y-83820000D03*
D14*
X66040000Y-43180000D03*
D15*
X60960000Y-43180000D03*
X71120000Y-43180000D03*
D16*
X62230000Y-40640000D03*
X68580000Y-38100000D03*
D14*
X43180000Y-71120000D03*
D15*
X48260000Y-71120000D03*
X38100000Y-71120000D03*
D16*
X39370000Y-68580000D03*
X45720000Y-66040000D03*
D14*
X129540000Y-134620000D03*
D15*
X134313639Y-136357462D03*
X124766361Y-132882538D03*
D16*
X126828502Y-130930084D03*
X133664282Y-130715093D03*
D14*
X279400000Y-60960000D03*
D15*
X284480000Y-60960000D03*
X274320000Y-60960000D03*
D16*
X275590000Y-58420000D03*
X281940000Y-55880000D03*
D14*
X91440000Y-35560000D03*
D15*
X96520000Y-35560000D03*
X86360000Y-35560000D03*
D16*
X87630000Y-33020000D03*
X93980000Y-30480000D03*
D15*
X228600000Y-43180000D03*
X238760000Y-43180000D03*
D14*
X233680000Y-43180000D03*
D16*
X229870000Y-40640000D03*
X236220000Y-38100000D03*
D17*
X143180000Y-71120000D03*
X136180000Y-71120000D03*
D18*
X133480000Y-68820000D03*
X134580000Y-73420000D03*
X138580000Y-73420000D03*
X141580000Y-73420000D03*
D15*
X251460000Y-71120000D03*
X261620000Y-71120000D03*
D14*
X256540000Y-71120000D03*
D16*
X252730000Y-68580000D03*
X259080000Y-66040000D03*
D19*
X142240000Y-33020000D03*
X142240000Y-35560000D03*
X142240000Y-38100000D03*
X142240000Y-40640000D03*
X142240000Y-43180000D03*
X142240000Y-45720000D03*
X142240000Y-48260000D03*
X142240000Y-50800000D03*
X142240000Y-53340000D03*
X142240000Y-55880000D03*
X142240000Y-58420000D03*
X142240000Y-60960000D03*
X139700000Y-60960000D03*
X137160000Y-60960000D03*
X134620000Y-60960000D03*
X132080000Y-60960000D03*
X129540000Y-60960000D03*
X127000000Y-60960000D03*
X127000000Y-58420000D03*
X127000000Y-55880000D03*
X127000000Y-53340000D03*
X127000000Y-50800000D03*
X127000000Y-48260000D03*
X127000000Y-45720000D03*
X127000000Y-43180000D03*
X127000000Y-40640000D03*
X127000000Y-38100000D03*
X127000000Y-35560000D03*
X127000000Y-33020000D03*
D15*
X271780000Y-81280000D03*
D14*
X276860000Y-81280000D03*
D15*
X281940000Y-81280000D03*
D16*
X273050000Y-78740000D03*
X279400000Y-76200000D03*
D15*
X48260000Y-30480000D03*
X38100000Y-30480000D03*
D14*
X43180000Y-30480000D03*
D16*
X39370000Y-27940000D03*
X45720000Y-25400000D03*
D15*
X15240000Y-60960000D03*
X25400000Y-60960000D03*
D14*
X20320000Y-60960000D03*
D16*
X16510000Y-58420000D03*
X22860000Y-55880000D03*
D14*
X66040000Y-63500000D03*
D15*
X71120000Y-63500000D03*
X60960000Y-63500000D03*
D16*
X62230000Y-60960000D03*
X68580000Y-58420000D03*
D15*
X106680000Y-40640000D03*
D14*
X111760000Y-40640000D03*
D15*
X116840000Y-40640000D03*
D16*
X107950000Y-38100000D03*
X114300000Y-35560000D03*
D14*
X43180000Y-50800000D03*
D15*
X38100000Y-50800000D03*
X48260000Y-50800000D03*
D16*
X39370000Y-48260000D03*
X45720000Y-45720000D03*
D15*
X213360000Y-76200000D03*
D14*
X208280000Y-76200000D03*
D15*
X203200000Y-76200000D03*
D16*
X204470000Y-73660000D03*
X210820000Y-71120000D03*
D14*
X233680000Y-22860000D03*
D15*
X238760000Y-22860000D03*
X228600000Y-22860000D03*
D16*
X229870000Y-20320000D03*
X236220000Y-17780000D03*
D20*
X137120000Y-77530000D03*
D15*
X134620000Y-78740000D03*
X139620000Y-78740000D03*
D17*
X156507500Y-71120000D03*
X163507500Y-71120000D03*
D18*
X166207500Y-73420000D03*
X165107500Y-68820000D03*
X161107500Y-68820000D03*
X158107500Y-68820000D03*
D15*
X106680000Y-81280000D03*
X116840000Y-81280000D03*
D14*
X111760000Y-81280000D03*
D16*
X107950000Y-78740000D03*
X114300000Y-76200000D03*
D15*
X261620000Y-30480000D03*
D14*
X256540000Y-30480000D03*
D15*
X251460000Y-30480000D03*
D16*
X252730000Y-27940000D03*
X259080000Y-25400000D03*
D14*
X111760000Y-60960000D03*
D15*
X116840000Y-60960000D03*
X106680000Y-60960000D03*
D16*
X107950000Y-58420000D03*
X114300000Y-55880000D03*
D14*
X233680000Y-63500000D03*
D15*
X228600000Y-63500000D03*
X238760000Y-63500000D03*
D16*
X229870000Y-60960000D03*
X236220000Y-58420000D03*
D14*
X187960000Y-60960000D03*
D15*
X182880000Y-60960000D03*
X193040000Y-60960000D03*
D16*
X184150000Y-58420000D03*
X190500000Y-55880000D03*
D15*
X251460000Y-50800000D03*
X261620000Y-50800000D03*
D14*
X256540000Y-50800000D03*
D16*
X252730000Y-48260000D03*
X259080000Y-45720000D03*
D15*
X86360000Y-76200000D03*
X96520000Y-76200000D03*
D14*
X91440000Y-76200000D03*
D16*
X87630000Y-73660000D03*
X93980000Y-71120000D03*
D14*
X187960000Y-40640000D03*
D15*
X182880000Y-40640000D03*
X193040000Y-40640000D03*
D16*
X184150000Y-38100000D03*
X190500000Y-35560000D03*
D20*
X162520000Y-77530000D03*
D15*
X160020000Y-78740000D03*
X165020000Y-78740000D03*
X294640000Y-60960000D03*
X304800000Y-60960000D03*
D14*
X299720000Y-60960000D03*
D16*
X295910000Y-58420000D03*
X302260000Y-55880000D03*
D15*
X71120000Y-22860000D03*
D14*
X66040000Y-22860000D03*
D15*
X60960000Y-22860000D03*
D16*
X62230000Y-20320000D03*
X68580000Y-17780000D03*
D14*
X109220000Y-114300000D03*
D15*
X114262134Y-114919096D03*
X104177866Y-113680904D03*
D16*
X105747947Y-111314611D03*
X112360163Y-109567414D03*
D15*
X213360000Y-35730000D03*
X203200000Y-35730000D03*
D14*
X208280000Y-35730000D03*
D16*
X204470000Y-33190000D03*
X210820000Y-30650000D03*
D15*
X27940000Y-81280000D03*
X17780000Y-81280000D03*
D14*
X22860000Y-81280000D03*
D16*
X19050000Y-78740000D03*
X25400000Y-76200000D03*
D15*
X213360000Y-55880000D03*
X203200000Y-55880000D03*
D14*
X208280000Y-55880000D03*
D16*
X204470000Y-53340000D03*
X210820000Y-50800000D03*
D15*
X-5080000Y-60960000D03*
D14*
X0Y-60960000D03*
D15*
X5080000Y-60960000D03*
D16*
X-3810000Y-58420000D03*
X2540000Y-55880000D03*
D19*
X172720000Y-33020000D03*
X172720000Y-35560000D03*
X172720000Y-38100000D03*
X172720000Y-40640000D03*
X172720000Y-43180000D03*
X172720000Y-45720000D03*
X172720000Y-48260000D03*
X172720000Y-50800000D03*
X172720000Y-53340000D03*
X172720000Y-55880000D03*
X172720000Y-58420000D03*
X172720000Y-60960000D03*
X170180000Y-60960000D03*
X167640000Y-60960000D03*
X165100000Y-60960000D03*
X162560000Y-60960000D03*
X160020000Y-60960000D03*
X157480000Y-60960000D03*
X157480000Y-58420000D03*
X157480000Y-55880000D03*
X157480000Y-53340000D03*
X157480000Y-50800000D03*
X157480000Y-48260000D03*
X157480000Y-45720000D03*
X157480000Y-43180000D03*
X157480000Y-40640000D03*
X157480000Y-38100000D03*
X157480000Y-35560000D03*
X157480000Y-33020000D03*
D15*
X96520000Y-55880000D03*
X86360000Y-55880000D03*
D14*
X91440000Y-55880000D03*
D16*
X87630000Y-53340000D03*
X93980000Y-50800000D03*
D15*
X174953639Y-132882538D03*
D14*
X170180000Y-134620000D03*
D15*
X165406361Y-136357462D03*
D16*
X165731040Y-133536277D03*
X170829357Y-128977630D03*
D14*
X190500000Y-114300000D03*
D15*
X195542134Y-113680904D03*
X185457866Y-114919096D03*
D16*
X186408851Y-112243255D03*
X192401971Y-108948317D03*
D15*
X182880000Y-81280000D03*
D14*
X187960000Y-81280000D03*
D15*
X193040000Y-81280000D03*
D16*
X184150000Y-78740000D03*
X190500000Y-76200000D03*
D21*
X246339360Y-26339800D03*
X246339360Y-29540200D03*
X241340640Y-29540200D03*
X241340640Y-26339800D03*
X99019360Y-89839800D03*
X99019360Y-93040200D03*
X94020640Y-93040200D03*
X94020640Y-89839800D03*
X205699360Y-89839800D03*
X205699360Y-93040200D03*
X200700640Y-93040200D03*
X200700640Y-89839800D03*
X58379360Y-26339800D03*
X58379360Y-29540200D03*
X53380640Y-29540200D03*
X53380640Y-26339800D03*
X12659360Y-64439800D03*
X12659360Y-67640200D03*
X7660640Y-67640200D03*
X7660640Y-64439800D03*
X246339360Y-72059800D03*
X246339360Y-75260200D03*
X241340640Y-75260200D03*
X241340640Y-72059800D03*
X104099360Y-36499800D03*
X104099360Y-39700200D03*
X99100640Y-39700200D03*
X99100640Y-36499800D03*
X200619360Y-36499800D03*
X200619360Y-39700200D03*
X195620640Y-39700200D03*
X195620640Y-36499800D03*
X114259360Y-127939800D03*
X114259360Y-131140200D03*
X109260640Y-131140200D03*
X109260640Y-127939800D03*
X292059360Y-64439800D03*
X292059360Y-67640200D03*
X287060640Y-67640200D03*
X287060640Y-64439800D03*
X190459360Y-127939800D03*
X190459360Y-131140200D03*
X185460640Y-131140200D03*
X185460640Y-127939800D03*
X58379360Y-72059800D03*
X58379360Y-75260200D03*
X53380640Y-75260200D03*
X53380640Y-72059800D03*
M02*
