M48
; DRILL file {KiCad (6.0.7)} date Fri 16 Sep 2022 03:10:47 PM CEST
; FORMAT={-:-/ absolute / metric / decimal}
; #@! TF.CreationDate,2022-09-16T15:10:47+02:00
; #@! TF.GenerationSoftware,Kicad,Pcbnew,(6.0.7)
; #@! TF.FileFunction,Plated,1,2,PTH
FMAT,2
METRIC
; #@! TA.AperFunction,Plated,PTH,ComponentDrill
T1C0.762
; #@! TA.AperFunction,Plated,PTH,ComponentDrill
T2C0.900
; #@! TA.AperFunction,Plated,PTH,ComponentDrill
T3C0.990
; #@! TA.AperFunction,Plated,PTH,ComponentDrill
T4C1.500
%
G90
G05
T1
X127.0Y-33.02
X127.0Y-35.56
X127.0Y-38.1
X127.0Y-40.64
X127.0Y-43.18
X127.0Y-45.72
X127.0Y-48.26
X127.0Y-50.8
X127.0Y-53.34
X127.0Y-55.88
X127.0Y-58.42
X127.0Y-60.96
X129.54Y-60.96
X132.08Y-60.96
X134.62Y-60.96
X137.16Y-60.96
X139.7Y-60.96
X142.24Y-33.02
X142.24Y-35.56
X142.24Y-38.1
X142.24Y-40.64
X142.24Y-43.18
X142.24Y-45.72
X142.24Y-48.26
X142.24Y-50.8
X142.24Y-53.34
X142.24Y-55.88
X142.24Y-58.42
X142.24Y-60.96
X157.48Y-33.02
X157.48Y-35.56
X157.48Y-38.1
X157.48Y-40.64
X157.48Y-43.18
X157.48Y-45.72
X157.48Y-48.26
X157.48Y-50.8
X157.48Y-53.34
X157.48Y-55.88
X157.48Y-58.42
X157.48Y-60.96
X160.02Y-60.96
X162.56Y-60.96
X165.1Y-60.96
X167.64Y-60.96
X170.18Y-60.96
X172.72Y-33.02
X172.72Y-35.56
X172.72Y-38.1
X172.72Y-40.64
X172.72Y-43.18
X172.72Y-45.72
X172.72Y-48.26
X172.72Y-50.8
X172.72Y-53.34
X172.72Y-55.88
X172.72Y-58.42
X172.72Y-60.96
T3
X134.62Y-78.74
X139.62Y-78.74
X160.02Y-78.74
X165.02Y-78.74
T4
X-3.81Y-58.42
X2.54Y-55.88
X16.51Y-58.42
X19.05Y-78.74
X22.86Y-55.88
X25.4Y-76.2
X39.37Y-27.94
X39.37Y-48.26
X39.37Y-68.58
X45.72Y-25.4
X45.72Y-45.72
X45.72Y-66.04
X62.23Y-20.32
X62.23Y-40.64
X62.23Y-60.96
X68.58Y-17.78
X68.58Y-38.1
X68.58Y-58.42
X87.63Y-33.02
X87.63Y-53.34
X87.63Y-73.66
X93.98Y-30.48
X93.98Y-50.8
X93.98Y-71.12
X105.748Y-111.315
X107.95Y-38.1
X107.95Y-58.42
X107.95Y-78.74
X112.36Y-109.567
X114.3Y-35.56
X114.3Y-55.88
X114.3Y-76.2
X126.829Y-130.93
X133.664Y-130.715
X165.731Y-133.536
X170.829Y-128.978
X184.15Y-38.1
X184.15Y-58.42
X184.15Y-78.74
X186.409Y-112.243
X190.5Y-35.56
X190.5Y-55.88
X190.5Y-76.2
X192.402Y-108.948
X204.47Y-33.19
X204.47Y-53.34
X204.47Y-73.66
X210.82Y-30.65
X210.82Y-50.8
X210.82Y-71.12
X229.87Y-20.32
X229.87Y-40.64
X229.87Y-60.96
X236.22Y-17.78
X236.22Y-38.1
X236.22Y-58.42
X252.73Y-27.94
X252.73Y-48.26
X252.73Y-68.58
X259.08Y-25.4
X259.08Y-45.72
X259.08Y-66.04
X273.05Y-78.74
X275.59Y-58.42
X279.4Y-76.2
X281.94Y-55.88
X295.91Y-58.42
X302.26Y-55.88
T2
X133.68Y-68.82G85X133.28Y-68.82
G05
X134.78Y-73.42G85X134.38Y-73.42
G05
X138.78Y-73.42G85X138.38Y-73.42
G05
X141.78Y-73.42G85X141.38Y-73.42
G05
X157.907Y-68.82G85X158.308Y-68.82
G05
X160.907Y-68.82G85X161.308Y-68.82
G05
X164.907Y-68.82G85X165.308Y-68.82
G05
X166.007Y-73.42G85X166.407Y-73.42
G05
T0
M30
