G04 #@! TF.GenerationSoftware,KiCad,Pcbnew,(6.0.7)*
G04 #@! TF.CreationDate,2022-09-16T15:10:19+02:00*
G04 #@! TF.ProjectId,yeti,79657469-2e6b-4696-9361-645f70636258,rev?*
G04 #@! TF.SameCoordinates,Original*
G04 #@! TF.FileFunction,Paste,Bot*
G04 #@! TF.FilePolarity,Positive*
%FSLAX46Y46*%
G04 Gerber Fmt 4.6, Leading zero omitted, Abs format (unit mm)*
G04 Created by KiCad (PCBNEW (6.0.7)) date 2022-09-16 15:10:19*
%MOMM*%
%LPD*%
G01*
G04 APERTURE LIST*
%ADD10R,1.501140X0.899160*%
G04 APERTURE END LIST*
D10*
X246339360Y-26339800D03*
X246339360Y-29540200D03*
X241340640Y-29540200D03*
X241340640Y-26339800D03*
X99019360Y-89839800D03*
X99019360Y-93040200D03*
X94020640Y-93040200D03*
X94020640Y-89839800D03*
X205699360Y-89839800D03*
X205699360Y-93040200D03*
X200700640Y-93040200D03*
X200700640Y-89839800D03*
X58379360Y-26339800D03*
X58379360Y-29540200D03*
X53380640Y-29540200D03*
X53380640Y-26339800D03*
X12659360Y-64439800D03*
X12659360Y-67640200D03*
X7660640Y-67640200D03*
X7660640Y-64439800D03*
X246339360Y-72059800D03*
X246339360Y-75260200D03*
X241340640Y-75260200D03*
X241340640Y-72059800D03*
X104099360Y-36499800D03*
X104099360Y-39700200D03*
X99100640Y-39700200D03*
X99100640Y-36499800D03*
X200619360Y-36499800D03*
X200619360Y-39700200D03*
X195620640Y-39700200D03*
X195620640Y-36499800D03*
X114259360Y-127939800D03*
X114259360Y-131140200D03*
X109260640Y-131140200D03*
X109260640Y-127939800D03*
X292059360Y-64439800D03*
X292059360Y-67640200D03*
X287060640Y-67640200D03*
X287060640Y-64439800D03*
X190459360Y-127939800D03*
X190459360Y-131140200D03*
X185460640Y-131140200D03*
X185460640Y-127939800D03*
X58379360Y-72059800D03*
X58379360Y-75260200D03*
X53380640Y-75260200D03*
X53380640Y-72059800D03*
M02*
