G04 #@! TF.GenerationSoftware,KiCad,Pcbnew,7.0.1*
G04 #@! TF.CreationDate,2023-04-24T22:18:50+02:00*
G04 #@! TF.ProjectId,yeti,79657469-2e6b-4696-9361-645f70636258,rev?*
G04 #@! TF.SameCoordinates,Original*
G04 #@! TF.FileFunction,Soldermask,Bot*
G04 #@! TF.FilePolarity,Negative*
%FSLAX46Y46*%
G04 Gerber Fmt 4.6, Leading zero omitted, Abs format (unit mm)*
G04 Created by KiCad (PCBNEW 7.0.1) date 2023-04-24 22:18:50*
%MOMM*%
%LPD*%
G01*
G04 APERTURE LIST*
%ADD10C,1.750000*%
%ADD11C,4.000000*%
%ADD12C,2.500000*%
%ADD13C,4.300000*%
%ADD14R,1.700000X1.700000*%
%ADD15O,1.700000X1.700000*%
%ADD16C,0.800000*%
%ADD17O,2.000000X1.600000*%
%ADD18C,2.200000*%
%ADD19C,1.524000*%
%ADD20R,1.501140X0.899160*%
G04 APERTURE END LIST*
D10*
X66040000Y-44196000D03*
D11*
X71120000Y-44196000D03*
D10*
X76200000Y-44196000D03*
D12*
X67310000Y-41656000D03*
X73660000Y-39116000D03*
D10*
X43180000Y-68580000D03*
D11*
X48260000Y-68580000D03*
D10*
X53340000Y-68580000D03*
D12*
X44450000Y-66040000D03*
X50800000Y-63500000D03*
D13*
X195326000Y-44450000D03*
D10*
X125590820Y-128317572D03*
D11*
X129119685Y-131971818D03*
D10*
X132648550Y-135626064D03*
D12*
X128300160Y-127466701D03*
X134538363Y-130270077D03*
D10*
X265684000Y-61468000D03*
D11*
X270764000Y-61468000D03*
D10*
X275844000Y-61468000D03*
D12*
X266954000Y-58928000D03*
X273304000Y-56388000D03*
D10*
X89916000Y-36576000D03*
D11*
X94996000Y-36576000D03*
D10*
X100076000Y-36576000D03*
D12*
X91186000Y-34036000D03*
X97536000Y-31496000D03*
D14*
X161036000Y-69088000D03*
D15*
X163576000Y-69088000D03*
X166116000Y-69088000D03*
X168656000Y-69088000D03*
D10*
X223520000Y-44196000D03*
D11*
X228600000Y-44196000D03*
D10*
X233680000Y-44196000D03*
D12*
X224790000Y-41656000D03*
X231140000Y-39116000D03*
D16*
X141732000Y-74676000D03*
X134732000Y-74676000D03*
D17*
X132032000Y-72376000D03*
X133132000Y-76976000D03*
X137132000Y-76976000D03*
X140132000Y-76976000D03*
D10*
X246380000Y-68580000D03*
D11*
X251460000Y-68580000D03*
D10*
X256540000Y-68580000D03*
D12*
X247650000Y-66040000D03*
X254000000Y-63500000D03*
D13*
X240030000Y-40894000D03*
D10*
X266700000Y-81280000D03*
D11*
X271780000Y-81280000D03*
D10*
X276860000Y-81280000D03*
D12*
X267970000Y-78740000D03*
X274320000Y-76200000D03*
D10*
X43180000Y-29972000D03*
D11*
X48260000Y-29972000D03*
D10*
X53340000Y-29972000D03*
D12*
X44450000Y-27432000D03*
X50800000Y-24892000D03*
D13*
X260858000Y-58420000D03*
D18*
X157480000Y-81280000D03*
X172466000Y-81280000D03*
D10*
X23876000Y-61468000D03*
D11*
X28956000Y-61468000D03*
D10*
X34036000Y-61468000D03*
D12*
X25146000Y-58928000D03*
X31496000Y-56388000D03*
D10*
X66040000Y-63500000D03*
D11*
X71120000Y-63500000D03*
D10*
X76200000Y-63500000D03*
D12*
X67310000Y-60960000D03*
X73660000Y-58420000D03*
D10*
X109220000Y-41656000D03*
D11*
X114300000Y-41656000D03*
D10*
X119380000Y-41656000D03*
D12*
X110490000Y-39116000D03*
X116840000Y-36576000D03*
D10*
X43180000Y-49276000D03*
D11*
X48260000Y-49276000D03*
D10*
X53340000Y-49276000D03*
D12*
X44450000Y-46736000D03*
X50800000Y-44196000D03*
D10*
X199644000Y-75184000D03*
D11*
X204724000Y-75184000D03*
D10*
X209804000Y-75184000D03*
D12*
X200914000Y-72644000D03*
X207264000Y-70104000D03*
D13*
X59690000Y-40894000D03*
X216662000Y-70104000D03*
D14*
X131064000Y-69088000D03*
D15*
X133604000Y-69088000D03*
X136144000Y-69088000D03*
X138684000Y-69088000D03*
D10*
X223520000Y-24892000D03*
D11*
X228600000Y-24892000D03*
D10*
X233680000Y-24892000D03*
D12*
X224790000Y-22352000D03*
X231140000Y-19812000D03*
D16*
X158031500Y-74676000D03*
X165031500Y-74676000D03*
D17*
X167731500Y-76976000D03*
X166631500Y-72376000D03*
X162631500Y-72376000D03*
X159631500Y-72376000D03*
D19*
X127000000Y-33020000D03*
X127000000Y-35560000D03*
X127000000Y-38100000D03*
X127000000Y-40640000D03*
X127000000Y-43180000D03*
X127000000Y-45720000D03*
X127000000Y-48260000D03*
X127000000Y-50800000D03*
X127000000Y-53340000D03*
X127000000Y-55880000D03*
X127000000Y-58420000D03*
X127000000Y-60960000D03*
X127000000Y-63500000D03*
X129540000Y-63500000D03*
X132080000Y-63500000D03*
X134620000Y-63500000D03*
X137160000Y-63500000D03*
X139700000Y-63500000D03*
X142240000Y-63500000D03*
X142240000Y-60960000D03*
X142240000Y-58420000D03*
X142240000Y-55880000D03*
X142240000Y-53340000D03*
X142240000Y-50800000D03*
X142240000Y-48260000D03*
X142240000Y-45720000D03*
X142240000Y-43180000D03*
X142240000Y-40640000D03*
X142240000Y-38100000D03*
X142240000Y-35560000D03*
X142240000Y-33020000D03*
D10*
X109220000Y-80264000D03*
D11*
X114300000Y-80264000D03*
D10*
X119380000Y-80264000D03*
D12*
X110490000Y-77724000D03*
X116840000Y-75184000D03*
D10*
X246380000Y-29972000D03*
D11*
X251460000Y-29972000D03*
D10*
X256540000Y-29972000D03*
D12*
X247650000Y-27432000D03*
X254000000Y-24892000D03*
D10*
X109220000Y-60960000D03*
D11*
X114300000Y-60960000D03*
D10*
X119380000Y-60960000D03*
D12*
X110490000Y-58420000D03*
X116840000Y-55880000D03*
D10*
X223520000Y-63500000D03*
D11*
X228600000Y-63500000D03*
D10*
X233680000Y-63500000D03*
D12*
X224790000Y-60960000D03*
X231140000Y-58420000D03*
D10*
X180340000Y-60960000D03*
D11*
X185420000Y-60960000D03*
D10*
X190500000Y-60960000D03*
D12*
X181610000Y-58420000D03*
X187960000Y-55880000D03*
D19*
X157480000Y-33020000D03*
X157480000Y-35560000D03*
X157480000Y-38100000D03*
X157480000Y-40640000D03*
X157480000Y-43180000D03*
X157480000Y-45720000D03*
X157480000Y-48260000D03*
X157480000Y-50800000D03*
X157480000Y-53340000D03*
X157480000Y-55880000D03*
X157480000Y-58420000D03*
X157480000Y-60960000D03*
X157480000Y-63500000D03*
X160020000Y-63500000D03*
X162560000Y-63500000D03*
X165100000Y-63500000D03*
X167640000Y-63500000D03*
X170180000Y-63500000D03*
X172720000Y-63500000D03*
X172720000Y-60960000D03*
X172720000Y-58420000D03*
X172720000Y-55880000D03*
X172720000Y-53340000D03*
X172720000Y-50800000D03*
X172720000Y-48260000D03*
X172720000Y-45720000D03*
X172720000Y-43180000D03*
X172720000Y-40640000D03*
X172720000Y-38100000D03*
X172720000Y-35560000D03*
X172720000Y-33020000D03*
D10*
X246380000Y-49276000D03*
D11*
X251460000Y-49276000D03*
D10*
X256540000Y-49276000D03*
D12*
X247650000Y-46736000D03*
X254000000Y-44196000D03*
D10*
X89916000Y-75184000D03*
D11*
X94996000Y-75184000D03*
D10*
X100076000Y-75184000D03*
D12*
X91186000Y-72644000D03*
X97536000Y-70104000D03*
D10*
X180340000Y-41656000D03*
D11*
X185420000Y-41656000D03*
D10*
X190500000Y-41656000D03*
D12*
X181610000Y-39116000D03*
X187960000Y-36576000D03*
D10*
X284988000Y-61468000D03*
D11*
X290068000Y-61468000D03*
D10*
X295148000Y-61468000D03*
D12*
X286258000Y-58928000D03*
X292608000Y-56388000D03*
D13*
X83058000Y-70104000D03*
D18*
X142240000Y-81280000D03*
X127000000Y-81280000D03*
D10*
X66040000Y-24892000D03*
D11*
X71120000Y-24892000D03*
D10*
X76200000Y-24892000D03*
D12*
X67310000Y-22352000D03*
X73660000Y-19812000D03*
D10*
X107733866Y-113680904D03*
D11*
X112776000Y-114300000D03*
D10*
X117818134Y-114919096D03*
D12*
X109303947Y-111314611D03*
X115916163Y-109567414D03*
D13*
X104140000Y-45974000D03*
D10*
X199644000Y-36576000D03*
D11*
X204724000Y-36576000D03*
D10*
X209804000Y-36576000D03*
D12*
X200914000Y-34036000D03*
X207264000Y-31496000D03*
D10*
X22860000Y-81280000D03*
D11*
X27940000Y-81280000D03*
D10*
X33020000Y-81280000D03*
D12*
X24130000Y-78740000D03*
X30480000Y-76200000D03*
D10*
X199644000Y-55880000D03*
D11*
X204724000Y-55880000D03*
D10*
X209804000Y-55880000D03*
D12*
X200914000Y-53340000D03*
X207264000Y-50800000D03*
D10*
X4572000Y-61468000D03*
D11*
X9652000Y-61468000D03*
D10*
X14732000Y-61468000D03*
D12*
X5842000Y-58928000D03*
X12192000Y-56388000D03*
D13*
X39878000Y-58928000D03*
D10*
X89916000Y-55880000D03*
D11*
X94996000Y-55880000D03*
D10*
X100076000Y-55880000D03*
D12*
X91186000Y-53340000D03*
X97536000Y-50800000D03*
D13*
X167386000Y-115570000D03*
D10*
X167186270Y-135734246D03*
D11*
X170715135Y-132080000D03*
D10*
X174244000Y-128425754D03*
D12*
X166241364Y-133056252D03*
X168825321Y-126724012D03*
D13*
X132334000Y-115570000D03*
D10*
X181901866Y-114919096D03*
D11*
X186944000Y-114300000D03*
D10*
X191986134Y-113680904D03*
D12*
X182852851Y-112243255D03*
X188845971Y-108948317D03*
D10*
X180340000Y-80264000D03*
D11*
X185420000Y-80264000D03*
D10*
X190500000Y-80264000D03*
D12*
X181610000Y-77724000D03*
X187960000Y-75184000D03*
D20*
X241259360Y-26339800D03*
X241259360Y-29540200D03*
X236260640Y-29540200D03*
X236260640Y-26339800D03*
X102575360Y-89839800D03*
X102575360Y-93040200D03*
X97576640Y-93040200D03*
X97576640Y-89839800D03*
X202143360Y-89839800D03*
X202143360Y-93040200D03*
X197144640Y-93040200D03*
X197144640Y-89839800D03*
X63459360Y-26339800D03*
X63459360Y-29540200D03*
X58460640Y-29540200D03*
X58460640Y-26339800D03*
X22311360Y-64947800D03*
X22311360Y-68148200D03*
X17312640Y-68148200D03*
X17312640Y-64947800D03*
X241259360Y-72059800D03*
X241259360Y-75260200D03*
X236260640Y-75260200D03*
X236260640Y-72059800D03*
X107655360Y-36499800D03*
X107655360Y-39700200D03*
X102656640Y-39700200D03*
X102656640Y-36499800D03*
X197063360Y-36499800D03*
X197063360Y-39700200D03*
X192064640Y-39700200D03*
X192064640Y-36499800D03*
X117815360Y-127939800D03*
X117815360Y-131140200D03*
X112816640Y-131140200D03*
X112816640Y-127939800D03*
X282407360Y-64947800D03*
X282407360Y-68148200D03*
X277408640Y-68148200D03*
X277408640Y-64947800D03*
X186903360Y-127939800D03*
X186903360Y-131140200D03*
X181904640Y-131140200D03*
X181904640Y-127939800D03*
X63459360Y-72059800D03*
X63459360Y-75260200D03*
X58460640Y-75260200D03*
X58460640Y-72059800D03*
M02*
