G04 #@! TF.GenerationSoftware,KiCad,Pcbnew,7.0.1*
G04 #@! TF.CreationDate,2023-04-24T22:18:49+02:00*
G04 #@! TF.ProjectId,yeti,79657469-2e6b-4696-9361-645f70636258,rev?*
G04 #@! TF.SameCoordinates,Original*
G04 #@! TF.FileFunction,Copper,L1,Top*
G04 #@! TF.FilePolarity,Positive*
%FSLAX46Y46*%
G04 Gerber Fmt 4.6, Leading zero omitted, Abs format (unit mm)*
G04 Created by KiCad (PCBNEW 7.0.1) date 2023-04-24 22:18:49*
%MOMM*%
%LPD*%
G01*
G04 APERTURE LIST*
G04 #@! TA.AperFunction,ComponentPad*
%ADD10C,2.500000*%
G04 #@! TD*
G04 #@! TA.AperFunction,ComponentPad*
%ADD11R,1.700000X1.700000*%
G04 #@! TD*
G04 #@! TA.AperFunction,ComponentPad*
%ADD12O,1.700000X1.700000*%
G04 #@! TD*
G04 #@! TA.AperFunction,ComponentPad*
%ADD13O,2.000000X1.600000*%
G04 #@! TD*
G04 #@! TA.AperFunction,ComponentPad*
%ADD14C,1.524000*%
G04 #@! TD*
G04 #@! TA.AperFunction,Conductor*
%ADD15C,0.250000*%
G04 #@! TD*
G04 APERTURE END LIST*
D10*
X67310000Y-41656000D03*
X73660000Y-39116000D03*
X44450000Y-66040000D03*
X50800000Y-63500000D03*
X128300160Y-127466701D03*
X134538363Y-130270077D03*
X266954000Y-58928000D03*
X273304000Y-56388000D03*
X91186000Y-34036000D03*
X97536000Y-31496000D03*
D11*
X161036000Y-69088000D03*
D12*
X163576000Y-69088000D03*
X166116000Y-69088000D03*
X168656000Y-69088000D03*
D10*
X224790000Y-41656000D03*
X231140000Y-39116000D03*
D13*
X132032000Y-72376000D03*
X133132000Y-76976000D03*
X137132000Y-76976000D03*
X140132000Y-76976000D03*
D10*
X247650000Y-66040000D03*
X254000000Y-63500000D03*
X267970000Y-78740000D03*
X274320000Y-76200000D03*
X44450000Y-27432000D03*
X50800000Y-24892000D03*
X25146000Y-58928000D03*
X31496000Y-56388000D03*
X67310000Y-60960000D03*
X73660000Y-58420000D03*
X110490000Y-39116000D03*
X116840000Y-36576000D03*
X44450000Y-46736000D03*
X50800000Y-44196000D03*
X200914000Y-72644000D03*
X207264000Y-70104000D03*
D11*
X131064000Y-69088000D03*
D12*
X133604000Y-69088000D03*
X136144000Y-69088000D03*
X138684000Y-69088000D03*
D10*
X224790000Y-22352000D03*
X231140000Y-19812000D03*
D13*
X167731500Y-76976000D03*
X166631500Y-72376000D03*
X162631500Y-72376000D03*
X159631500Y-72376000D03*
D14*
X127000000Y-33020000D03*
X127000000Y-35560000D03*
X127000000Y-38100000D03*
X127000000Y-40640000D03*
X127000000Y-43180000D03*
X127000000Y-45720000D03*
X127000000Y-48260000D03*
X127000000Y-50800000D03*
X127000000Y-53340000D03*
X127000000Y-55880000D03*
X127000000Y-58420000D03*
X127000000Y-60960000D03*
X127000000Y-63500000D03*
X129540000Y-63500000D03*
X132080000Y-63500000D03*
X134620000Y-63500000D03*
X137160000Y-63500000D03*
X139700000Y-63500000D03*
X142240000Y-63500000D03*
X142240000Y-60960000D03*
X142240000Y-58420000D03*
X142240000Y-55880000D03*
X142240000Y-53340000D03*
X142240000Y-50800000D03*
X142240000Y-48260000D03*
X142240000Y-45720000D03*
X142240000Y-43180000D03*
X142240000Y-40640000D03*
X142240000Y-38100000D03*
X142240000Y-35560000D03*
X142240000Y-33020000D03*
D10*
X110490000Y-77724000D03*
X116840000Y-75184000D03*
X247650000Y-27432000D03*
X254000000Y-24892000D03*
X110490000Y-58420000D03*
X116840000Y-55880000D03*
X224790000Y-60960000D03*
X231140000Y-58420000D03*
X181610000Y-58420000D03*
X187960000Y-55880000D03*
D14*
X157480000Y-33020000D03*
X157480000Y-35560000D03*
X157480000Y-38100000D03*
X157480000Y-40640000D03*
X157480000Y-43180000D03*
X157480000Y-45720000D03*
X157480000Y-48260000D03*
X157480000Y-50800000D03*
X157480000Y-53340000D03*
X157480000Y-55880000D03*
X157480000Y-58420000D03*
X157480000Y-60960000D03*
X157480000Y-63500000D03*
X160020000Y-63500000D03*
X162560000Y-63500000D03*
X165100000Y-63500000D03*
X167640000Y-63500000D03*
X170180000Y-63500000D03*
X172720000Y-63500000D03*
X172720000Y-60960000D03*
X172720000Y-58420000D03*
X172720000Y-55880000D03*
X172720000Y-53340000D03*
X172720000Y-50800000D03*
X172720000Y-48260000D03*
X172720000Y-45720000D03*
X172720000Y-43180000D03*
X172720000Y-40640000D03*
X172720000Y-38100000D03*
X172720000Y-35560000D03*
X172720000Y-33020000D03*
D10*
X247650000Y-46736000D03*
X254000000Y-44196000D03*
X91186000Y-72644000D03*
X97536000Y-70104000D03*
X181610000Y-39116000D03*
X187960000Y-36576000D03*
X286258000Y-58928000D03*
X292608000Y-56388000D03*
X67310000Y-22352000D03*
X73660000Y-19812000D03*
X109303947Y-111314611D03*
X115916163Y-109567414D03*
X200914000Y-34036000D03*
X207264000Y-31496000D03*
X24130000Y-78740000D03*
X30480000Y-76200000D03*
X200914000Y-53340000D03*
X207264000Y-50800000D03*
X5842000Y-58928000D03*
X12192000Y-56388000D03*
X91186000Y-53340000D03*
X97536000Y-50800000D03*
X166241364Y-133056252D03*
X168825321Y-126724012D03*
X182852851Y-112243255D03*
X188845971Y-108948317D03*
X181610000Y-77724000D03*
X187960000Y-75184000D03*
D15*
X156775748Y-62165626D02*
X158177625Y-62165626D01*
X156393000Y-70033000D02*
X156393000Y-62548374D01*
X159631500Y-72376000D02*
X158736000Y-72376000D01*
X159004000Y-39624000D02*
X157480000Y-38100000D01*
X156393000Y-62548374D02*
X156775748Y-62165626D01*
X158736000Y-72376000D02*
X156393000Y-70033000D01*
X158177625Y-62165626D02*
X159004000Y-61339251D01*
X159004000Y-61339251D02*
X159004000Y-39624000D01*
X155943499Y-59956501D02*
X155943499Y-71107499D01*
X155943499Y-71107499D02*
X160528000Y-75692000D01*
X187452000Y-75692000D02*
X187960000Y-75184000D01*
X157480000Y-58420000D02*
X155943499Y-59956501D01*
X160528000Y-75692000D02*
X187452000Y-75692000D01*
X172720000Y-63500000D02*
X180340000Y-55880000D01*
X180340000Y-55880000D02*
X187960000Y-55880000D01*
X182880000Y-50800000D02*
X207264000Y-50800000D01*
X172720000Y-60960000D02*
X182880000Y-50800000D01*
X211838760Y-39116000D02*
X201912756Y-49042004D01*
X231140000Y-39116000D02*
X211838760Y-39116000D01*
X201912756Y-49042004D02*
X182097996Y-49042004D01*
X182097996Y-49042004D02*
X172720000Y-58420000D01*
X201726567Y-48592503D02*
X215208571Y-35110499D01*
X244914499Y-35110499D02*
X254000000Y-44196000D01*
X243390499Y-35110499D02*
X244914499Y-35110499D01*
X215208571Y-35110499D02*
X243390499Y-35110499D01*
X172720000Y-55880000D02*
X180007497Y-48592503D01*
X180007497Y-48592503D02*
X201726567Y-48592503D01*
X172720000Y-53340000D02*
X177916998Y-48143002D01*
X201540378Y-48143002D02*
X221743380Y-27940000D01*
X254000000Y-24892000D02*
X254233999Y-25125999D01*
X221743380Y-27940000D02*
X244348000Y-27940000D01*
X245872000Y-26416000D02*
X247396000Y-24892000D01*
X244348000Y-27940000D02*
X245872000Y-26416000D01*
X247396000Y-24892000D02*
X254000000Y-24892000D01*
X177916998Y-48143002D02*
X201540378Y-48143002D01*
X172720000Y-50800000D02*
X175826499Y-47693501D01*
X201354189Y-47693501D02*
X220980000Y-28067690D01*
X220980000Y-28067690D02*
X220980000Y-22860000D01*
X175826499Y-47693501D02*
X201354189Y-47693501D01*
X224028000Y-19812000D02*
X231140000Y-19812000D01*
X220980000Y-22860000D02*
X224028000Y-19812000D01*
X201168000Y-47244000D02*
X207264000Y-41148000D01*
X173736000Y-47244000D02*
X201168000Y-47244000D01*
X172720000Y-48260000D02*
X173736000Y-47244000D01*
X207264000Y-41148000D02*
X207264000Y-31496000D01*
X187960000Y-36576000D02*
X187960000Y-43180000D01*
X187960000Y-43180000D02*
X186944000Y-44196000D01*
X186944000Y-44196000D02*
X174244000Y-44196000D01*
X174244000Y-44196000D02*
X172720000Y-45720000D01*
X254000000Y-55880000D02*
X274320000Y-76200000D01*
X167307497Y-65707497D02*
X204674123Y-65707497D01*
X165100000Y-63500000D02*
X167307497Y-65707497D01*
X214501620Y-55880000D02*
X254000000Y-55880000D01*
X204674123Y-65707497D02*
X214501620Y-55880000D01*
X272346499Y-55430499D02*
X273304000Y-56388000D01*
X204487934Y-65257996D02*
X214315431Y-55430499D01*
X214315431Y-55430499D02*
X272346499Y-55430499D01*
X167640000Y-63500000D02*
X169397996Y-65257996D01*
X169397996Y-65257996D02*
X204487934Y-65257996D01*
X170180000Y-63500000D02*
X171488495Y-64808495D01*
X214297240Y-54813000D02*
X291033000Y-54813000D01*
X204301745Y-64808495D02*
X214297240Y-54813000D01*
X291033000Y-54813000D02*
X292608000Y-56388000D01*
X171488495Y-64808495D02*
X204301745Y-64808495D01*
X204860312Y-66156998D02*
X214687809Y-56329501D01*
X162560000Y-63500000D02*
X165216998Y-66156998D01*
X214687809Y-56329501D02*
X246829501Y-56329501D01*
X165216998Y-66156998D02*
X204860312Y-66156998D01*
X246829501Y-56329501D02*
X254000000Y-63500000D01*
X166624000Y-71120000D02*
X168656000Y-69088000D01*
X162631500Y-72376000D02*
X162631500Y-71556500D01*
X163068000Y-71120000D02*
X166624000Y-71120000D01*
X162631500Y-71556500D02*
X163068000Y-71120000D01*
X160020000Y-63500000D02*
X163126499Y-66606499D01*
X163126499Y-66606499D02*
X205046501Y-66606499D01*
X213233000Y-58420000D02*
X231140000Y-58420000D01*
X205046501Y-66606499D02*
X213233000Y-58420000D01*
X204216000Y-67056000D02*
X207264000Y-70104000D01*
X157480000Y-63500000D02*
X161036000Y-67056000D01*
X161036000Y-67056000D02*
X204216000Y-67056000D01*
X174371690Y-78232000D02*
X179773501Y-83633811D01*
X155448000Y-57912000D02*
X155448000Y-73660000D01*
X179773501Y-115257501D02*
X181864000Y-117348000D01*
X189319000Y-115481000D02*
X189319000Y-109421346D01*
X179773501Y-83633811D02*
X179773501Y-115257501D01*
X189319000Y-109421346D02*
X188845971Y-108948317D01*
X187452000Y-117348000D02*
X189319000Y-115481000D01*
X160020000Y-78232000D02*
X174371690Y-78232000D01*
X155448000Y-73660000D02*
X160020000Y-78232000D01*
X157480000Y-55880000D02*
X155448000Y-57912000D01*
X181864000Y-117348000D02*
X187452000Y-117348000D01*
X174244000Y-78740000D02*
X179324000Y-83820000D01*
X154940000Y-55880000D02*
X154940000Y-73914000D01*
X157480000Y-53340000D02*
X154940000Y-55880000D01*
X179324000Y-117348000D02*
X169947988Y-126724012D01*
X154940000Y-73914000D02*
X159766000Y-78740000D01*
X169947988Y-126724012D02*
X168825321Y-126724012D01*
X179324000Y-83820000D02*
X179324000Y-117348000D01*
X159766000Y-78740000D02*
X174244000Y-78740000D01*
X136872604Y-75851000D02*
X136144000Y-75851000D01*
X142240000Y-43180000D02*
X143372998Y-44312998D01*
X136144000Y-75851000D02*
X134257000Y-75851000D01*
X143372998Y-44312998D02*
X143372998Y-69350606D01*
X143372998Y-69350606D02*
X136872604Y-75851000D01*
X134257000Y-75851000D02*
X133132000Y-76976000D01*
X136144000Y-69088000D02*
X136144000Y-75851000D01*
X128087000Y-39187000D02*
X127000000Y-38100000D01*
X142819000Y-39187000D02*
X128087000Y-39187000D01*
X144272499Y-40640499D02*
X142819000Y-39187000D01*
X144272499Y-69723191D02*
X144272499Y-40640499D01*
X140132000Y-76976000D02*
X140132000Y-73863690D01*
X140132000Y-73863690D02*
X144272499Y-69723191D01*
X137132000Y-76976000D02*
X137132000Y-76228000D01*
X143822998Y-69537002D02*
X143822998Y-42978373D01*
X143822998Y-42978373D02*
X142571625Y-41727000D01*
X128453000Y-41727000D02*
X127000000Y-43180000D01*
X137132000Y-76228000D02*
X143822998Y-69537002D01*
X142571625Y-41727000D02*
X128453000Y-41727000D01*
X140787000Y-44267000D02*
X124531000Y-44267000D01*
X124531000Y-44267000D02*
X116840000Y-36576000D01*
X142240000Y-45720000D02*
X140787000Y-44267000D01*
X117691001Y-41999001D02*
X117691001Y-40475001D01*
X142240000Y-48260000D02*
X141153000Y-47173000D01*
X141153000Y-47173000D02*
X122865000Y-47173000D01*
X122865000Y-47173000D02*
X117691001Y-41999001D01*
X99060000Y-33020000D02*
X97536000Y-31496000D01*
X110236000Y-33020000D02*
X99060000Y-33020000D01*
X117691001Y-40475001D02*
X110236000Y-33020000D01*
X89095961Y-38275497D02*
X77724000Y-26903536D01*
X141153000Y-49713000D02*
X103436070Y-49713000D01*
X103436070Y-49713000D02*
X91998567Y-38275497D01*
X91998567Y-38275497D02*
X89095961Y-38275497D01*
X142240000Y-50800000D02*
X141153000Y-49713000D01*
X77724000Y-26903536D02*
X77724000Y-23876000D01*
X77724000Y-23876000D02*
X73660000Y-19812000D01*
X142240000Y-53340000D02*
X140832998Y-51932998D01*
X88909772Y-38724998D02*
X84845772Y-34660998D01*
X140832998Y-51932998D02*
X105020378Y-51932998D01*
X91812378Y-38724998D02*
X88909772Y-38724998D01*
X105020378Y-51932998D02*
X91812378Y-38724998D01*
X60568998Y-34660998D02*
X50800000Y-24892000D01*
X84845772Y-34660998D02*
X60568998Y-34660998D01*
X91626189Y-39174499D02*
X88723583Y-39174499D01*
X104834189Y-52382499D02*
X91626189Y-39174499D01*
X88723583Y-39174499D02*
X84659583Y-35110499D01*
X60901501Y-35110499D02*
X51816000Y-44196000D01*
X124451533Y-54793000D02*
X122041032Y-52382499D01*
X141153000Y-54793000D02*
X124451533Y-54793000D01*
X84659583Y-35110499D02*
X60901501Y-35110499D01*
X142240000Y-55880000D02*
X141153000Y-54793000D01*
X51816000Y-44196000D02*
X50800000Y-44196000D01*
X122041032Y-52382499D02*
X104834189Y-52382499D01*
X140787000Y-56967000D02*
X125989843Y-56967000D01*
X74168000Y-39624000D02*
X73660000Y-39116000D01*
X121854843Y-52832000D02*
X104648000Y-52832000D01*
X91440000Y-39624000D02*
X74168000Y-39624000D01*
X125989843Y-56967000D02*
X121854843Y-52832000D01*
X104648000Y-52832000D02*
X91440000Y-39624000D01*
X142240000Y-58420000D02*
X140787000Y-56967000D01*
X126421000Y-59873000D02*
X119888000Y-53340000D01*
X104394000Y-53340000D02*
X101854000Y-50800000D01*
X141153000Y-59873000D02*
X126421000Y-59873000D01*
X101854000Y-50800000D02*
X97536000Y-50800000D01*
X142240000Y-60960000D02*
X141153000Y-59873000D01*
X119888000Y-53340000D02*
X104394000Y-53340000D01*
X142240000Y-63365684D02*
X140284567Y-61410251D01*
X128087000Y-61410251D02*
X127084251Y-62413000D01*
X140284567Y-61410251D02*
X128087000Y-61410251D01*
X127084251Y-62413000D02*
X123373000Y-62413000D01*
X142240000Y-63500000D02*
X142240000Y-63365684D01*
X123373000Y-62413000D02*
X116840000Y-55880000D01*
X64379205Y-78369501D02*
X28965811Y-78369501D01*
X12192000Y-61595690D02*
X12192000Y-56388000D01*
X139700000Y-63500000D02*
X136593501Y-66606499D01*
X136593501Y-66606499D02*
X76142207Y-66606499D01*
X28965811Y-78369501D02*
X12192000Y-61595690D01*
X76142207Y-66606499D02*
X64379205Y-78369501D01*
X28448000Y-75184000D02*
X31496000Y-72136000D01*
X137160000Y-63500000D02*
X134503002Y-66156998D01*
X134503002Y-66156998D02*
X75956018Y-66156998D01*
X31496000Y-72136000D02*
X31496000Y-56388000D01*
X28448000Y-76708000D02*
X28448000Y-75184000D01*
X75956018Y-66156998D02*
X64193016Y-77920000D01*
X29660000Y-77920000D02*
X28448000Y-76708000D01*
X64193016Y-77920000D02*
X29660000Y-77920000D01*
X64006620Y-77470000D02*
X31750000Y-77470000D01*
X132412503Y-65707497D02*
X75769123Y-65707497D01*
X31750000Y-77470000D02*
X30480000Y-76200000D01*
X134620000Y-63500000D02*
X132412503Y-65707497D01*
X75769123Y-65707497D02*
X64006620Y-77470000D01*
X75582934Y-65257996D02*
X74625433Y-66215497D01*
X132080000Y-63500000D02*
X130322004Y-65257996D01*
X53515497Y-66215497D02*
X50800000Y-63500000D01*
X74625433Y-66215497D02*
X53515497Y-66215497D01*
X130322004Y-65257996D02*
X75582934Y-65257996D01*
X80048495Y-64808495D02*
X73660000Y-58420000D01*
X129540000Y-63500000D02*
X128231505Y-64808495D01*
X128231505Y-64808495D02*
X80048495Y-64808495D01*
X97536000Y-70104000D02*
X100584000Y-67056000D01*
X137937992Y-67056000D02*
X141153000Y-63840992D01*
X128524000Y-61976000D02*
X127000000Y-63500000D01*
X140214626Y-61976000D02*
X128524000Y-61976000D01*
X141153000Y-63840992D02*
X141153000Y-62914374D01*
X141153000Y-62914374D02*
X140214626Y-61976000D01*
X100584000Y-67056000D02*
X137937992Y-67056000D01*
X181843999Y-111234403D02*
X182852851Y-112243255D01*
X180594000Y-38100000D02*
X181610000Y-39116000D01*
X181843999Y-77957999D02*
X181843999Y-111234403D01*
X172720000Y-38100000D02*
X180594000Y-38100000D01*
X182852851Y-112243255D02*
X183336106Y-111760000D01*
X181610000Y-77724000D02*
X181843999Y-77957999D01*
M02*
