G04 #@! TF.GenerationSoftware,KiCad,Pcbnew,(6.0.7)*
G04 #@! TF.CreationDate,2022-09-16T15:10:18+02:00*
G04 #@! TF.ProjectId,yeti,79657469-2e6b-4696-9361-645f70636258,rev?*
G04 #@! TF.SameCoordinates,Original*
G04 #@! TF.FileFunction,Copper,L2,Bot*
G04 #@! TF.FilePolarity,Positive*
%FSLAX46Y46*%
G04 Gerber Fmt 4.6, Leading zero omitted, Abs format (unit mm)*
G04 Created by KiCad (PCBNEW (6.0.7)) date 2022-09-16 15:10:18*
%MOMM*%
%LPD*%
G01*
G04 APERTURE LIST*
G04 #@! TA.AperFunction,ComponentPad*
%ADD10C,2.500000*%
G04 #@! TD*
G04 #@! TA.AperFunction,ComponentPad*
%ADD11O,2.000000X1.600000*%
G04 #@! TD*
G04 #@! TA.AperFunction,ComponentPad*
%ADD12C,1.524000*%
G04 #@! TD*
G04 #@! TA.AperFunction,ComponentPad*
%ADD13C,1.750000*%
G04 #@! TD*
G04 #@! TA.AperFunction,SMDPad,CuDef*
%ADD14R,1.501140X0.899160*%
G04 #@! TD*
G04 #@! TA.AperFunction,Conductor*
%ADD15C,0.250000*%
G04 #@! TD*
G04 APERTURE END LIST*
D10*
X62230000Y-40640000D03*
X68580000Y-38100000D03*
X39370000Y-68580000D03*
X45720000Y-66040000D03*
X126828502Y-130930084D03*
X133664282Y-130715093D03*
X275590000Y-58420000D03*
X281940000Y-55880000D03*
X87630000Y-33020000D03*
X93980000Y-30480000D03*
X229870000Y-40640000D03*
X236220000Y-38100000D03*
D11*
X133480000Y-68820000D03*
X134580000Y-73420000D03*
X138580000Y-73420000D03*
X141580000Y-73420000D03*
D10*
X252730000Y-68580000D03*
X259080000Y-66040000D03*
D12*
X142240000Y-33020000D03*
X142240000Y-35560000D03*
X142240000Y-38100000D03*
X142240000Y-40640000D03*
X142240000Y-43180000D03*
X142240000Y-45720000D03*
X142240000Y-48260000D03*
X142240000Y-50800000D03*
X142240000Y-53340000D03*
X142240000Y-55880000D03*
X142240000Y-58420000D03*
X142240000Y-60960000D03*
X139700000Y-60960000D03*
X137160000Y-60960000D03*
X134620000Y-60960000D03*
X132080000Y-60960000D03*
X129540000Y-60960000D03*
X127000000Y-60960000D03*
X127000000Y-58420000D03*
X127000000Y-55880000D03*
X127000000Y-53340000D03*
X127000000Y-50800000D03*
X127000000Y-48260000D03*
X127000000Y-45720000D03*
X127000000Y-43180000D03*
X127000000Y-40640000D03*
X127000000Y-38100000D03*
X127000000Y-35560000D03*
X127000000Y-33020000D03*
D10*
X273050000Y-78740000D03*
X279400000Y-76200000D03*
X39370000Y-27940000D03*
X45720000Y-25400000D03*
X16510000Y-58420000D03*
X22860000Y-55880000D03*
X62230000Y-60960000D03*
X68580000Y-58420000D03*
X107950000Y-38100000D03*
X114300000Y-35560000D03*
X39370000Y-48260000D03*
X45720000Y-45720000D03*
X204470000Y-73660000D03*
X210820000Y-71120000D03*
X229870000Y-20320000D03*
X236220000Y-17780000D03*
D13*
X134620000Y-78740000D03*
X139620000Y-78740000D03*
D11*
X166207500Y-73420000D03*
X165107500Y-68820000D03*
X161107500Y-68820000D03*
X158107500Y-68820000D03*
D10*
X107950000Y-78740000D03*
X114300000Y-76200000D03*
X252730000Y-27940000D03*
X259080000Y-25400000D03*
X107950000Y-58420000D03*
X114300000Y-55880000D03*
X229870000Y-60960000D03*
X236220000Y-58420000D03*
X184150000Y-58420000D03*
X190500000Y-55880000D03*
X252730000Y-48260000D03*
X259080000Y-45720000D03*
X87630000Y-73660000D03*
X93980000Y-71120000D03*
X184150000Y-38100000D03*
X190500000Y-35560000D03*
D13*
X160020000Y-78740000D03*
X165020000Y-78740000D03*
D10*
X295910000Y-58420000D03*
X302260000Y-55880000D03*
X62230000Y-20320000D03*
X68580000Y-17780000D03*
X105747947Y-111314611D03*
X112360163Y-109567414D03*
X204470000Y-33190000D03*
X210820000Y-30650000D03*
X19050000Y-78740000D03*
X25400000Y-76200000D03*
X204470000Y-53340000D03*
X210820000Y-50800000D03*
X-3810000Y-58420000D03*
X2540000Y-55880000D03*
D12*
X172720000Y-33020000D03*
X172720000Y-35560000D03*
X172720000Y-38100000D03*
X172720000Y-40640000D03*
X172720000Y-43180000D03*
X172720000Y-45720000D03*
X172720000Y-48260000D03*
X172720000Y-50800000D03*
X172720000Y-53340000D03*
X172720000Y-55880000D03*
X172720000Y-58420000D03*
X172720000Y-60960000D03*
X170180000Y-60960000D03*
X167640000Y-60960000D03*
X165100000Y-60960000D03*
X162560000Y-60960000D03*
X160020000Y-60960000D03*
X157480000Y-60960000D03*
X157480000Y-58420000D03*
X157480000Y-55880000D03*
X157480000Y-53340000D03*
X157480000Y-50800000D03*
X157480000Y-48260000D03*
X157480000Y-45720000D03*
X157480000Y-43180000D03*
X157480000Y-40640000D03*
X157480000Y-38100000D03*
X157480000Y-35560000D03*
X157480000Y-33020000D03*
D10*
X87630000Y-53340000D03*
X93980000Y-50800000D03*
X165731040Y-133536277D03*
X170829357Y-128977630D03*
X186408851Y-112243255D03*
X192401971Y-108948317D03*
X184150000Y-78740000D03*
X190500000Y-76200000D03*
D14*
X246339360Y-26339800D03*
X246339360Y-29540200D03*
X241340640Y-29540200D03*
X241340640Y-26339800D03*
X99019360Y-89839800D03*
X99019360Y-93040200D03*
X94020640Y-93040200D03*
X94020640Y-89839800D03*
X205699360Y-89839800D03*
X205699360Y-93040200D03*
X200700640Y-93040200D03*
X200700640Y-89839800D03*
X58379360Y-26339800D03*
X58379360Y-29540200D03*
X53380640Y-29540200D03*
X53380640Y-26339800D03*
X12659360Y-64439800D03*
X12659360Y-67640200D03*
X7660640Y-67640200D03*
X7660640Y-64439800D03*
X246339360Y-72059800D03*
X246339360Y-75260200D03*
X241340640Y-75260200D03*
X241340640Y-72059800D03*
X104099360Y-36499800D03*
X104099360Y-39700200D03*
X99100640Y-39700200D03*
X99100640Y-36499800D03*
X200619360Y-36499800D03*
X200619360Y-39700200D03*
X195620640Y-39700200D03*
X195620640Y-36499800D03*
X114259360Y-127939800D03*
X114259360Y-131140200D03*
X109260640Y-131140200D03*
X109260640Y-127939800D03*
X292059360Y-64439800D03*
X292059360Y-67640200D03*
X287060640Y-67640200D03*
X287060640Y-64439800D03*
X190459360Y-127939800D03*
X190459360Y-131140200D03*
X185460640Y-131140200D03*
X185460640Y-127939800D03*
X58379360Y-72059800D03*
X58379360Y-75260200D03*
X53380640Y-75260200D03*
X53380640Y-72059800D03*
D15*
X205699360Y-89839800D02*
X204924780Y-89065220D01*
X175260000Y-68580000D02*
X175260000Y-76200000D01*
X199625070Y-90614380D02*
X200838824Y-90614380D01*
X261620000Y-22860000D02*
X248920000Y-22860000D01*
X263872016Y-75912016D02*
X274320000Y-86360000D01*
X165107500Y-68820000D02*
X175020000Y-68820000D01*
X190500000Y-38100000D02*
X199019160Y-38100000D01*
X292685429Y-68864281D02*
X293134930Y-68414780D01*
X251851183Y-73205613D02*
X254557586Y-75912016D01*
X246339360Y-25440640D02*
X246339360Y-26339800D01*
X293134930Y-68414780D02*
X293134930Y-65515370D01*
X264160000Y-50800000D02*
X264160000Y-25400000D01*
X304800000Y-53340000D02*
X266700000Y-53340000D01*
X218253811Y-75750499D02*
X240265070Y-75750499D01*
X293134930Y-65515370D02*
X292059360Y-64439800D01*
X201776210Y-91551766D02*
X201776210Y-94768100D01*
X254557586Y-75912016D02*
X263872016Y-75912016D01*
X175260000Y-76200000D02*
X188125220Y-89065220D01*
X242416210Y-75750499D02*
X242648661Y-75750499D01*
X200210499Y-118188661D02*
X190459360Y-127939800D01*
X284480000Y-81280000D02*
X284480000Y-72019160D01*
X175260000Y-63500000D02*
X175260000Y-68580000D01*
X188925000Y-36525000D02*
X190500000Y-38100000D01*
X307340000Y-55880000D02*
X304800000Y-53340000D01*
X200210499Y-96333811D02*
X200210499Y-118188661D01*
X201776210Y-94768100D02*
X200210499Y-96333811D01*
X175260000Y-43180000D02*
X175260000Y-63500000D01*
X284480000Y-72019160D02*
X287634879Y-68864281D01*
X307340000Y-60960000D02*
X307340000Y-55880000D01*
X181915000Y-36525000D02*
X188925000Y-36525000D01*
X279400000Y-86360000D02*
X284480000Y-81280000D01*
X200838824Y-90614380D02*
X201776210Y-91551766D01*
X242648661Y-75750499D02*
X246339360Y-72059800D01*
X240265070Y-75750499D02*
X240265070Y-76034780D01*
X188125220Y-89065220D02*
X199625070Y-89065220D01*
X175260000Y-43180000D02*
X181915000Y-36525000D01*
X172720000Y-40640000D02*
X175260000Y-43180000D01*
X199019160Y-38100000D02*
X200619360Y-36499800D01*
X240265070Y-76034780D02*
X242416210Y-76034780D01*
X287634879Y-68864281D02*
X292685429Y-68864281D01*
X292059360Y-64439800D02*
X303860200Y-64439800D01*
X204924780Y-89065220D02*
X199625070Y-89065220D01*
X205699360Y-88304950D02*
X218253811Y-75750499D01*
X264160000Y-25400000D02*
X261620000Y-22860000D01*
X175020000Y-68820000D02*
X175260000Y-68580000D01*
X248920000Y-22860000D02*
X246339360Y-25440640D01*
X205699360Y-89839800D02*
X205699360Y-88304950D01*
X303860200Y-64439800D02*
X307340000Y-60960000D01*
X266700000Y-53340000D02*
X264160000Y-50800000D01*
X274320000Y-86360000D02*
X279400000Y-86360000D01*
X248848976Y-72059800D02*
X249994789Y-73205613D01*
X246339360Y-72059800D02*
X248848976Y-72059800D01*
X199625070Y-89065220D02*
X199625070Y-90614380D01*
X249994789Y-73205613D02*
X251851183Y-73205613D01*
X242416210Y-76034780D02*
X242416210Y-75750499D01*
X201694930Y-31985070D02*
X205740000Y-27940000D01*
X200619360Y-39700200D02*
X201694930Y-38624630D01*
X226060000Y-25400000D02*
X226060000Y-20320000D01*
X236220000Y-15240000D02*
X241340640Y-20360640D01*
X201694930Y-38624630D02*
X201694930Y-31985070D01*
X205740000Y-27940000D02*
X223520000Y-27940000D01*
X231140000Y-15240000D02*
X236220000Y-15240000D01*
X223520000Y-27940000D02*
X226060000Y-25400000D01*
X226060000Y-20320000D02*
X231140000Y-15240000D01*
X241340640Y-20360640D02*
X241340640Y-26339800D01*
X275920200Y-67640200D02*
X287060640Y-67640200D01*
X195620640Y-43139360D02*
X195620640Y-39700200D01*
X275590000Y-67310000D02*
X275590000Y-58420000D01*
X229870000Y-40640000D02*
X229870000Y-60960000D01*
X184150000Y-44450000D02*
X184480200Y-44780200D01*
X241340640Y-29540200D02*
X230200200Y-29540200D01*
X215900000Y-73660000D02*
X226060000Y-63500000D01*
X204470000Y-73660000D02*
X215900000Y-73660000D01*
X229870000Y-60960000D02*
X245110000Y-60960000D01*
X275590000Y-58420000D02*
X295910000Y-58420000D01*
X252730000Y-68580000D02*
X252730000Y-48260000D01*
X241340640Y-75260200D02*
X217500200Y-75260200D01*
X275590000Y-76200000D02*
X275590000Y-67310000D01*
X172720000Y-132080000D02*
X177800000Y-127000000D01*
X228600000Y-60960000D02*
X229870000Y-60960000D01*
X198120000Y-95620840D02*
X200700640Y-93040200D01*
X187960000Y-116840000D02*
X187960000Y-113794404D01*
X217500200Y-75260200D02*
X215900000Y-73660000D01*
X198120000Y-78740000D02*
X203200000Y-73660000D01*
X184480200Y-44780200D02*
X193979800Y-44780200D01*
X177800000Y-127000000D02*
X187960000Y-116840000D01*
X275590000Y-67310000D02*
X275920200Y-67640200D01*
X186408851Y-112243255D02*
X187710864Y-110941242D01*
X187710864Y-110941242D02*
X193858758Y-110941242D01*
X185460640Y-131140200D02*
X181940200Y-131140200D01*
X193979800Y-44780200D02*
X195620640Y-43139360D01*
X245110000Y-60960000D02*
X252730000Y-68580000D01*
X193858758Y-110941242D02*
X198120000Y-106680000D01*
X252730000Y-68580000D02*
X262890000Y-68580000D01*
X226060000Y-63500000D02*
X228600000Y-60960000D01*
X203200000Y-73660000D02*
X204470000Y-73660000D01*
X229870000Y-29210000D02*
X229870000Y-40640000D01*
X184150000Y-38100000D02*
X184150000Y-44450000D01*
X181940200Y-131140200D02*
X177800000Y-127000000D01*
X184150000Y-58420000D02*
X184150000Y-78740000D01*
X198120000Y-106680000D02*
X198120000Y-95620840D01*
X167187317Y-132080000D02*
X172720000Y-132080000D01*
X204470000Y-33190000D02*
X204470000Y-53340000D01*
X230200200Y-29540200D02*
X229870000Y-29210000D01*
X252730000Y-34290000D02*
X252730000Y-27940000D01*
X165731040Y-133536277D02*
X167187317Y-132080000D01*
X184150000Y-78740000D02*
X198120000Y-78740000D01*
X273050000Y-78740000D02*
X275590000Y-76200000D01*
X229870000Y-20320000D02*
X229870000Y-29210000D01*
X184150000Y-44450000D02*
X184150000Y-58420000D01*
X252730000Y-48260000D02*
X252730000Y-34290000D01*
X204470000Y-53340000D02*
X204470000Y-73660000D01*
X187960000Y-113794404D02*
X186408851Y-112243255D01*
X262890000Y-68580000D02*
X273050000Y-78740000D01*
X184333000Y-34107000D02*
X185420000Y-33020000D01*
X171267000Y-34107000D02*
X184333000Y-34107000D01*
X157480000Y-33020000D02*
X170180000Y-33020000D01*
X185420000Y-33020000D02*
X193040000Y-33020000D01*
X193040000Y-33020000D02*
X195620640Y-35600640D01*
X170180000Y-33020000D02*
X171267000Y-34107000D01*
X195620640Y-35600640D02*
X195620640Y-36499800D01*
X208280000Y-86360000D02*
X218440000Y-76200000D01*
X245115279Y-76484281D02*
X246339360Y-75260200D01*
X240078881Y-76484281D02*
X245115279Y-76484281D01*
X218440000Y-76200000D02*
X239815569Y-76200000D01*
X239815569Y-76220969D02*
X240078881Y-76484281D01*
X239815569Y-76200000D02*
X239815569Y-76220969D01*
X208280000Y-90990499D02*
X208280000Y-86360000D01*
X201851339Y-90990499D02*
X208280000Y-90990499D01*
X200700640Y-89839800D02*
X201851339Y-90990499D01*
X280218758Y-80461242D02*
X281940000Y-78740000D01*
X249555690Y-71120000D02*
X250805691Y-72370001D01*
X241340640Y-72059800D02*
X242280440Y-71120000D01*
X280218758Y-82671244D02*
X280218758Y-80461242D01*
X272415690Y-83820000D02*
X279070002Y-83820000D01*
X287448690Y-68414780D02*
X289908837Y-68414780D01*
X255454998Y-73660000D02*
X262255690Y-73660000D01*
X289908837Y-68414780D02*
X289908837Y-68054386D01*
X290323023Y-67640200D02*
X292059360Y-67640200D01*
X281940000Y-73923470D02*
X287448690Y-68414780D01*
X242280440Y-71120000D02*
X249555690Y-71120000D01*
X262255690Y-73660000D02*
X272415690Y-83820000D01*
X279070002Y-83820000D02*
X280218758Y-82671244D01*
X250805691Y-72370001D02*
X254164999Y-72370001D01*
X254164999Y-72370001D02*
X255454998Y-73660000D01*
X281940000Y-78740000D02*
X281940000Y-73923470D01*
X289908837Y-68054386D02*
X290323023Y-67640200D01*
X248920000Y-26959560D02*
X246339360Y-29540200D01*
X261433811Y-23309501D02*
X249106189Y-23309501D01*
X249106189Y-23309501D02*
X248920000Y-23495690D01*
X304164310Y-63500000D02*
X306704310Y-60960000D01*
X248920000Y-23495690D02*
X248920000Y-26959560D01*
X287060640Y-64439800D02*
X288000440Y-63500000D01*
X263710499Y-50986189D02*
X263710499Y-25586189D01*
X263710499Y-25586189D02*
X261433811Y-23309501D01*
X266513811Y-53789501D02*
X263710499Y-50986189D01*
X306704310Y-55880000D02*
X304613811Y-53789501D01*
X288000440Y-63500000D02*
X304164310Y-63500000D01*
X306704310Y-60960000D02*
X306704310Y-55880000D01*
X304613811Y-53789501D02*
X266513811Y-53789501D01*
X162732499Y-72537032D02*
X165020000Y-74824533D01*
X162560000Y-70650468D02*
X162732499Y-70822967D01*
X162732499Y-70822967D02*
X162732499Y-72537032D01*
X164013000Y-65033000D02*
X162560000Y-66486000D01*
X172720000Y-38100000D02*
X164013000Y-46807000D01*
X164013000Y-46807000D02*
X164013000Y-65033000D01*
X162560000Y-66486000D02*
X162560000Y-70650468D01*
X165020000Y-74824533D02*
X165020000Y-78740000D01*
X190709310Y-129540000D02*
X191534930Y-128714380D01*
X191534930Y-128714380D02*
X191534930Y-127500626D01*
X204139800Y-93040200D02*
X205699360Y-93040200D01*
X187060840Y-129540000D02*
X190709310Y-129540000D01*
X200660000Y-118375556D02*
X200660000Y-96520000D01*
X185460640Y-127939800D02*
X187060840Y-129540000D01*
X200660000Y-96520000D02*
X204139800Y-93040200D01*
X191534930Y-127500626D02*
X200660000Y-118375556D01*
X161107500Y-77652500D02*
X160020000Y-78740000D01*
X157480000Y-40640000D02*
X156393000Y-41727000D01*
X156393000Y-64105500D02*
X161107500Y-68820000D01*
X156393000Y-41727000D02*
X156393000Y-64105500D01*
X161107500Y-68820000D02*
X161107500Y-77652500D01*
X113850499Y-86173811D02*
X113850499Y-106866189D01*
X96520000Y-38100000D02*
X93980000Y-35560000D01*
X95870790Y-89839800D02*
X82230990Y-76200000D01*
X105009710Y-40640000D02*
X101890590Y-40640000D01*
X25400000Y-79648774D02*
X25400000Y-83184310D01*
X136072033Y-73420000D02*
X139147034Y-70344999D01*
X109220000Y-35560000D02*
X106680000Y-35560000D01*
X105174930Y-40474780D02*
X105009710Y-40640000D01*
X134580000Y-73420000D02*
X136072033Y-73420000D01*
X133797900Y-133885738D02*
X133063638Y-134620000D01*
X20955690Y-86360000D02*
X15689501Y-81093811D01*
X52359560Y-71120000D02*
X50269061Y-73210499D01*
X45533811Y-73210499D02*
X42993811Y-75750499D01*
X91440000Y-33020000D02*
X89865000Y-31445000D01*
X29298275Y-75750499D02*
X25400000Y-79648774D01*
X135114139Y-133885738D02*
X133797900Y-133885738D01*
X73405535Y-25145535D02*
X73405535Y-21609999D01*
X139147034Y-70344999D02*
X144004999Y-70344999D01*
X110478570Y-124460000D02*
X113958370Y-127939800D01*
X82230990Y-76200000D02*
X62519560Y-76200000D01*
X122555690Y-137160000D02*
X114259360Y-128863670D01*
X72115536Y-20320000D02*
X66040000Y-20320000D01*
X105740200Y-36499800D02*
X104099360Y-36499800D01*
X58379360Y-72059800D02*
X58379360Y-71360220D01*
X135377452Y-128393142D02*
X135377452Y-133622425D01*
X58379360Y-71360220D02*
X58139140Y-71120000D01*
X99019360Y-89839800D02*
X102498503Y-93318943D01*
X133063638Y-134620000D02*
X133063638Y-136176362D01*
X105174930Y-37575370D02*
X105174930Y-40474780D01*
X102498503Y-93318943D02*
X102498503Y-120541973D01*
X22224310Y-86360000D02*
X20955690Y-86360000D01*
X113850499Y-106866189D02*
X135377452Y-128393142D01*
X106416530Y-124460000D02*
X110478570Y-124460000D01*
X93980000Y-33020000D02*
X91440000Y-33020000D01*
X15689501Y-67469941D02*
X12659360Y-64439800D01*
X58139140Y-71120000D02*
X52359560Y-71120000D01*
X116840000Y-38100000D02*
X111760000Y-38100000D01*
X142240000Y-40640000D02*
X141153000Y-39553000D01*
X99019360Y-89839800D02*
X95870790Y-89839800D01*
X106680000Y-35560000D02*
X105740200Y-36499800D01*
X132080000Y-137160000D02*
X122555690Y-137160000D01*
X79705000Y-31445000D02*
X73405535Y-25145535D01*
X144004999Y-76339311D02*
X139513811Y-80830499D01*
X66040000Y-20320000D02*
X63500000Y-17780000D01*
X58379360Y-20996330D02*
X58379360Y-26339800D01*
X99350590Y-38100000D02*
X96520000Y-38100000D01*
X139513811Y-80830499D02*
X119193811Y-80830499D01*
X15689501Y-81093811D02*
X15689501Y-67469941D01*
X111760000Y-38100000D02*
X109220000Y-35560000D01*
X101890590Y-40640000D02*
X99350590Y-38100000D01*
X89865000Y-31445000D02*
X79705000Y-31445000D01*
X25400000Y-83184310D02*
X22224310Y-86360000D01*
X42993811Y-75750499D02*
X29298275Y-75750499D01*
X102498503Y-120541973D02*
X106416530Y-124460000D01*
X61595690Y-17780000D02*
X58379360Y-20996330D01*
X119193811Y-80830499D02*
X113850499Y-86173811D01*
X144004999Y-70344999D02*
X144004999Y-76339311D01*
X50269061Y-73210499D02*
X45533811Y-73210499D01*
X93980000Y-35560000D02*
X93980000Y-33020000D01*
X73405535Y-21609999D02*
X72115536Y-20320000D01*
X113958370Y-127939800D02*
X114259360Y-127939800D01*
X104099360Y-36499800D02*
X105174930Y-37575370D01*
X135377452Y-133622425D02*
X135114139Y-133885738D01*
X62519560Y-76200000D02*
X58379360Y-72059800D01*
X118293000Y-39553000D02*
X116840000Y-38100000D01*
X63500000Y-17780000D02*
X61595690Y-17780000D01*
X133063638Y-136176362D02*
X132080000Y-137160000D01*
X114259360Y-128863670D02*
X114259360Y-127939800D01*
X141153000Y-39553000D02*
X118293000Y-39553000D01*
X92251847Y-32570499D02*
X90161348Y-30480000D01*
X66226189Y-19870499D02*
X63686189Y-17330499D01*
X104099360Y-39700200D02*
X102049659Y-37650499D01*
X73855036Y-24959346D02*
X73855036Y-21423810D01*
X102049659Y-37650499D02*
X98160998Y-37650499D01*
X95816034Y-32570499D02*
X92251847Y-32570499D01*
X98160998Y-37650499D02*
X97770001Y-37259502D01*
X63686189Y-17330499D02*
X61409501Y-17330499D01*
X53380640Y-25359360D02*
X53380640Y-26339800D01*
X72301725Y-19870499D02*
X66226189Y-19870499D01*
X97770001Y-37259502D02*
X97770001Y-34524466D01*
X79375690Y-30480000D02*
X73855036Y-24959346D01*
X97770001Y-34524466D02*
X95816034Y-32570499D01*
X73855036Y-21423810D02*
X72301725Y-19870499D01*
X90161348Y-30480000D02*
X79375690Y-30480000D01*
X61409501Y-17330499D02*
X53380640Y-25359360D01*
X119380000Y-81280000D02*
X114300000Y-86360000D01*
X79639002Y-77099002D02*
X92945070Y-90405070D01*
X62230000Y-60960000D02*
X46990000Y-60960000D01*
X87630000Y-73660000D02*
X87630000Y-53340000D01*
X144780000Y-45720000D02*
X144780000Y-76200000D01*
X10160000Y-65140840D02*
X10160000Y-58420000D01*
X94020640Y-93040200D02*
X94960440Y-93980000D01*
X143336723Y-47163277D02*
X112856723Y-47163277D01*
X55520432Y-77099002D02*
X79639002Y-77099002D01*
X134506637Y-139700000D02*
X137160000Y-137046637D01*
X46990000Y-60960000D02*
X39370000Y-68580000D01*
X103850440Y-44450000D02*
X107950000Y-44450000D01*
X39370000Y-27940000D02*
X45084310Y-27940000D01*
X7660640Y-67640200D02*
X10160000Y-65140840D01*
X94020640Y-90990420D02*
X94020640Y-93040200D01*
X99060000Y-93980000D02*
X101599501Y-96519501D01*
X105747947Y-111314611D02*
X106193336Y-111760000D01*
X16510000Y-76200000D02*
X19050000Y-78740000D01*
X144780000Y-38100000D02*
X144780000Y-45720000D01*
X105747947Y-111314611D02*
X105747947Y-115907947D01*
X92945070Y-90614380D02*
X93644600Y-90614380D01*
X112856723Y-47163277D02*
X110143446Y-44450000D01*
X134506637Y-139700000D02*
X119380000Y-139700000D01*
X144780000Y-45720000D02*
X143336723Y-47163277D01*
X105747947Y-115907947D02*
X120770084Y-130930084D01*
X53681630Y-75260200D02*
X55520432Y-77099002D01*
X62230000Y-60960000D02*
X74930000Y-60960000D01*
X99100640Y-39700200D02*
X103850440Y-44450000D01*
X101599501Y-96519501D02*
X101599501Y-123479061D01*
X144780000Y-76200000D02*
X139700000Y-81280000D01*
X109220000Y-80010000D02*
X109220000Y-107842558D01*
X142240000Y-35560000D02*
X144780000Y-38100000D01*
X110143446Y-44450000D02*
X107950000Y-44450000D01*
X92945070Y-90405070D02*
X92945070Y-90614380D01*
X74930000Y-60960000D02*
X87630000Y-73660000D01*
X39370000Y-48260000D02*
X39370000Y-68580000D01*
X101599501Y-123479061D02*
X109260640Y-131140200D01*
X109220000Y-107842558D02*
X105747947Y-111314611D01*
X114300000Y-106680000D02*
X137160000Y-129540000D01*
X87630000Y-53340000D02*
X87630000Y-33020000D01*
X16510000Y-58420000D02*
X16510000Y-76200000D01*
X119380000Y-139700000D02*
X110820200Y-131140200D01*
X139700000Y-81280000D02*
X119380000Y-81280000D01*
X45084310Y-27940000D02*
X45533811Y-28389501D01*
X94960440Y-93980000D02*
X99060000Y-93980000D01*
X62230000Y-40640000D02*
X62230000Y-60960000D01*
X45533811Y-28389501D02*
X52229941Y-28389501D01*
X102870000Y-73660000D02*
X87630000Y-73660000D01*
X137160000Y-137046637D02*
X137160000Y-129540000D01*
X107950000Y-38100000D02*
X107950000Y-44450000D01*
X114300000Y-86360000D02*
X114300000Y-106680000D01*
X120770084Y-130930084D02*
X126828502Y-130930084D01*
X53380640Y-75260200D02*
X53681630Y-75260200D01*
X110820200Y-131140200D02*
X109260640Y-131140200D01*
X93644600Y-90614380D02*
X94020640Y-90990420D01*
X16510000Y-58420000D02*
X-3810000Y-58420000D01*
X107950000Y-58420000D02*
X107950000Y-78740000D01*
X107950000Y-78740000D02*
X109220000Y-80010000D01*
X29210000Y-68580000D02*
X19050000Y-78740000D01*
X39370000Y-48260000D02*
X39370000Y-27940000D01*
X52229941Y-28389501D02*
X53380640Y-29540200D01*
X107950000Y-44450000D02*
X107950000Y-58420000D01*
X62230000Y-20320000D02*
X62230000Y-40640000D01*
X39370000Y-68580000D02*
X29210000Y-68580000D01*
X107950000Y-78740000D02*
X102870000Y-73660000D01*
X127000000Y-33020000D02*
X102580440Y-33020000D01*
X102580440Y-33020000D02*
X99100640Y-36499800D01*
X58379360Y-75260200D02*
X58680350Y-75260200D01*
X93719650Y-89839800D02*
X94020640Y-89839800D01*
X60069651Y-76649501D02*
X80529351Y-76649501D01*
X58680350Y-75260200D02*
X60069651Y-76649501D01*
X80529351Y-76649501D02*
X93719650Y-89839800D01*
X20769501Y-86809501D02*
X15240000Y-81280000D01*
X53079650Y-72059800D02*
X48939450Y-76200000D01*
X29484464Y-76200000D02*
X26689999Y-78994465D01*
X26689999Y-82530001D02*
X22410499Y-86809501D01*
X53380640Y-72059800D02*
X53079650Y-72059800D01*
X15240000Y-81280000D02*
X15240000Y-69919850D01*
X26689999Y-78994465D02*
X26689999Y-82530001D01*
X22410499Y-86809501D02*
X20769501Y-86809501D01*
X15240000Y-69919850D02*
X12960350Y-67640200D01*
X12960350Y-67640200D02*
X12659360Y-67640200D01*
X48939450Y-76200000D02*
X29484464Y-76200000D01*
X-4140200Y-64439800D02*
X7660640Y-64439800D01*
X-2540000Y-53340000D02*
X-7620000Y-58420000D01*
X-7620000Y-58420000D02*
X-7620000Y-60960000D01*
X56779160Y-27940000D02*
X45720000Y-27940000D01*
X43180000Y-25400000D02*
X38100000Y-25400000D01*
X58379360Y-29540200D02*
X56779160Y-27940000D01*
X38100000Y-25400000D02*
X35560000Y-27940000D01*
X45720000Y-27940000D02*
X43180000Y-25400000D01*
X35560000Y-27940000D02*
X35560000Y-50800000D01*
X-7620000Y-60960000D02*
X-4140200Y-64439800D01*
X35560000Y-50800000D02*
X33020000Y-53340000D01*
X33020000Y-53340000D02*
X-2540000Y-53340000D01*
X102049002Y-120728162D02*
X102049002Y-95768852D01*
X102049002Y-95768852D02*
X99320350Y-93040200D01*
X99320350Y-93040200D02*
X99019360Y-93040200D01*
X109260640Y-127939800D02*
X102049002Y-120728162D01*
X132080000Y-74455495D02*
X132080000Y-74545000D01*
X125913000Y-68288495D02*
X132080000Y-74455495D01*
X127000000Y-58420000D02*
X125913000Y-59507000D01*
X125913000Y-59507000D02*
X125913000Y-68288495D01*
X132080000Y-74545000D02*
X140455000Y-74545000D01*
X140455000Y-74545000D02*
X141580000Y-73420000D01*
X119380000Y-76200000D02*
X114300000Y-76200000D01*
X124460000Y-58420000D02*
X124460000Y-71120000D01*
X127000000Y-55880000D02*
X124460000Y-58420000D01*
X124460000Y-71120000D02*
X119380000Y-76200000D01*
X111838154Y-75469459D02*
X111838154Y-76278154D01*
X114749501Y-65590499D02*
X114749501Y-72760998D01*
X114749501Y-72760998D02*
X113850499Y-73660000D01*
X113400998Y-85987622D02*
X113400998Y-106758813D01*
X114749501Y-79189501D02*
X114749501Y-84639119D01*
X113647613Y-73660000D02*
X111838154Y-75469459D01*
X113400998Y-106758813D02*
X112360163Y-107799648D01*
X113850499Y-73660000D02*
X113647613Y-73660000D01*
X111838154Y-76278154D02*
X114749501Y-79189501D01*
X114749501Y-84639119D02*
X113400998Y-85987622D01*
X112360163Y-107799648D02*
X112360163Y-109567414D01*
X127000000Y-53340000D02*
X114749501Y-65590499D01*
X110185000Y-110185000D02*
X111760000Y-111760000D01*
X111310499Y-77182037D02*
X114300000Y-80171538D01*
X110185000Y-108255000D02*
X110185000Y-110185000D01*
X114709189Y-111760000D02*
X133664282Y-130715093D01*
X112951497Y-85801433D02*
X112951497Y-105488503D01*
X114300000Y-80171538D02*
X114300000Y-84452930D01*
X125913176Y-53790428D02*
X114299501Y-65404103D01*
X127000000Y-50800000D02*
X125913176Y-51886824D01*
X114299501Y-65404103D02*
X114299501Y-72372422D01*
X114300000Y-84452930D02*
X112951497Y-85801433D01*
X111760000Y-111760000D02*
X114709189Y-111760000D01*
X111310499Y-75361424D02*
X111310499Y-77182037D01*
X112951497Y-105488503D02*
X110185000Y-108255000D01*
X114299501Y-72372422D02*
X111310499Y-75361424D01*
X125913176Y-51886824D02*
X125913176Y-53790428D01*
M02*
