M48
; DRILL file {KiCad (6.0.7)} date Fri 16 Sep 2022 03:04:39 PM CEST
; FORMAT={-:-/ absolute / metric / decimal}
; #@! TF.CreationDate,2022-09-16T15:04:39+02:00
; #@! TF.GenerationSoftware,Kicad,Pcbnew,(6.0.7)
; #@! TF.FileFunction,MixedPlating,1,2
FMAT,2
METRIC
; #@! TA.AperFunction,Plated,PTH,ComponentDrill
T1C0.762
; #@! TA.AperFunction,Plated,PTH,ComponentDrill
T2C0.900
; #@! TA.AperFunction,Plated,PTH,ComponentDrill
T3C0.990
; #@! TA.AperFunction,Plated,PTH,ComponentDrill
T4C1.500
; #@! TA.AperFunction,NonPlated,NPTH,ComponentDrill
T5C0.800
; #@! TA.AperFunction,NonPlated,NPTH,ComponentDrill
T6C1.200
; #@! TA.AperFunction,NonPlated,NPTH,ComponentDrill
T7C1.750
; #@! TA.AperFunction,NonPlated,NPTH,ComponentDrill
T8C2.200
; #@! TA.AperFunction,NonPlated,NPTH,ComponentDrill
T9C4.000
; #@! TA.AperFunction,NonPlated,NPTH,ComponentDrill
T10C4.300
%
G90
G05
T1
X127.0Y-33.02
X127.0Y-35.56
X127.0Y-38.1
X127.0Y-40.64
X127.0Y-43.18
X127.0Y-45.72
X127.0Y-48.26
X127.0Y-50.8
X127.0Y-53.34
X127.0Y-55.88
X127.0Y-58.42
X127.0Y-60.96
X129.54Y-60.96
X132.08Y-60.96
X134.62Y-60.96
X137.16Y-60.96
X139.7Y-60.96
X142.24Y-33.02
X142.24Y-35.56
X142.24Y-38.1
X142.24Y-40.64
X142.24Y-43.18
X142.24Y-45.72
X142.24Y-48.26
X142.24Y-50.8
X142.24Y-53.34
X142.24Y-55.88
X142.24Y-58.42
X142.24Y-60.96
X157.48Y-33.02
X157.48Y-35.56
X157.48Y-38.1
X157.48Y-40.64
X157.48Y-43.18
X157.48Y-45.72
X157.48Y-48.26
X157.48Y-50.8
X157.48Y-53.34
X157.48Y-55.88
X157.48Y-58.42
X157.48Y-60.96
X160.02Y-60.96
X162.56Y-60.96
X165.1Y-60.96
X167.64Y-60.96
X170.18Y-60.96
X172.72Y-33.02
X172.72Y-35.56
X172.72Y-38.1
X172.72Y-40.64
X172.72Y-43.18
X172.72Y-45.72
X172.72Y-48.26
X172.72Y-50.8
X172.72Y-53.34
X172.72Y-55.88
X172.72Y-58.42
X172.72Y-60.96
T3
X134.62Y-78.74
X139.62Y-78.74
X160.02Y-78.74
X165.02Y-78.74
T4
X-3.81Y-58.42
X2.54Y-55.88
X16.51Y-58.42
X19.05Y-78.74
X22.86Y-55.88
X25.4Y-76.2
X39.37Y-27.94
X39.37Y-48.26
X39.37Y-68.58
X45.72Y-25.4
X45.72Y-45.72
X45.72Y-66.04
X62.23Y-20.32
X62.23Y-40.64
X62.23Y-60.96
X68.58Y-17.78
X68.58Y-38.1
X68.58Y-58.42
X87.63Y-33.02
X87.63Y-53.34
X87.63Y-73.66
X93.98Y-30.48
X93.98Y-50.8
X93.98Y-71.12
X105.748Y-111.315
X107.95Y-38.1
X107.95Y-58.42
X107.95Y-78.74
X112.36Y-109.567
X114.3Y-35.56
X114.3Y-55.88
X114.3Y-76.2
X126.829Y-130.93
X133.664Y-130.715
X165.731Y-133.536
X170.829Y-128.978
X184.15Y-38.1
X184.15Y-58.42
X184.15Y-78.74
X186.409Y-112.243
X190.5Y-35.56
X190.5Y-55.88
X190.5Y-76.2
X192.402Y-108.948
X204.47Y-33.19
X204.47Y-53.34
X204.47Y-73.66
X210.82Y-30.65
X210.82Y-50.8
X210.82Y-71.12
X229.87Y-20.32
X229.87Y-40.64
X229.87Y-60.96
X236.22Y-17.78
X236.22Y-38.1
X236.22Y-58.42
X252.73Y-27.94
X252.73Y-48.26
X252.73Y-68.58
X259.08Y-25.4
X259.08Y-45.72
X259.08Y-66.04
X273.05Y-78.74
X275.59Y-58.42
X279.4Y-76.2
X281.94Y-55.88
X295.91Y-58.42
X302.26Y-55.88
T5
X136.18Y-71.12
X143.18Y-71.12
X156.507Y-71.12
X163.507Y-71.12
T6
X137.12Y-77.53
X162.52Y-77.53
T7
X-5.08Y-60.96
X5.08Y-60.96
X15.24Y-60.96
X17.78Y-81.28
X25.4Y-60.96
X27.94Y-81.28
X38.1Y-30.48
X38.1Y-50.8
X38.1Y-71.12
X48.26Y-30.48
X48.26Y-50.8
X48.26Y-71.12
X60.96Y-22.86
X60.96Y-43.18
X60.96Y-63.5
X71.12Y-22.86
X71.12Y-43.18
X71.12Y-63.5
X86.36Y-35.56
X86.36Y-55.88
X86.36Y-76.2
X96.52Y-35.56
X96.52Y-55.88
X96.52Y-76.2
X104.178Y-113.681
X106.68Y-40.64
X106.68Y-60.96
X106.68Y-81.28
X114.262Y-114.919
X116.84Y-40.64
X116.84Y-60.96
X116.84Y-81.28
X124.766Y-132.883
X134.314Y-136.357
X165.406Y-136.357
X174.954Y-132.883
X182.88Y-40.64
X182.88Y-60.96
X182.88Y-81.28
X185.458Y-114.919
X193.04Y-40.64
X193.04Y-60.96
X193.04Y-81.28
X195.542Y-113.681
X203.2Y-35.73
X203.2Y-55.88
X203.2Y-76.2
X213.36Y-35.73
X213.36Y-55.88
X213.36Y-76.2
X228.6Y-22.86
X228.6Y-43.18
X228.6Y-63.5
X238.76Y-22.86
X238.76Y-43.18
X238.76Y-63.5
X251.46Y-30.48
X251.46Y-50.8
X251.46Y-71.12
X261.62Y-30.48
X261.62Y-50.8
X261.62Y-71.12
X271.78Y-81.28
X274.32Y-60.96
X281.94Y-81.28
X284.48Y-60.96
X294.64Y-60.96
X304.8Y-60.96
T8
X127.0Y-83.82
X144.78Y-83.82
X144.78Y-83.82
X154.94Y-83.82
X172.72Y-83.82
T9
X0.0Y-60.96
X20.32Y-60.96
X22.86Y-81.28
X43.18Y-30.48
X43.18Y-50.8
X43.18Y-71.12
X66.04Y-22.86
X66.04Y-43.18
X66.04Y-63.5
X91.44Y-35.56
X91.44Y-55.88
X91.44Y-76.2
X109.22Y-114.3
X111.76Y-40.64
X111.76Y-60.96
X111.76Y-81.28
X129.54Y-134.62
X170.18Y-134.62
X187.96Y-40.64
X187.96Y-60.96
X187.96Y-81.28
X190.5Y-114.3
X208.28Y-35.73
X208.28Y-55.88
X208.28Y-76.2
X233.68Y-22.86
X233.68Y-43.18
X233.68Y-63.5
X256.54Y-30.48
X256.54Y-50.8
X256.54Y-71.12
X276.86Y-81.28
X279.4Y-60.96
X299.72Y-60.96
T10
X33.02Y-60.96
X53.34Y-40.64
X53.34Y-40.64
X78.74Y-40.64
X78.74Y-40.64
X101.6Y-55.88
X101.6Y-55.88
X101.6Y-86.36
X101.6Y-86.36
X134.62Y-119.38
X134.62Y-119.38
X165.1Y-119.38
X198.12Y-55.88
X198.12Y-55.88
X198.12Y-86.36
X198.12Y-86.36
X220.98Y-40.64
X220.98Y-40.64
X246.38Y-40.64
X246.38Y-40.64
X266.7Y-60.96
T2
X133.68Y-68.82G85X133.28Y-68.82
G05
X134.78Y-73.42G85X134.38Y-73.42
G05
X138.78Y-73.42G85X138.38Y-73.42
G05
X141.78Y-73.42G85X141.38Y-73.42
G05
X157.907Y-68.82G85X158.308Y-68.82
G05
X160.907Y-68.82G85X161.308Y-68.82
G05
X164.907Y-68.82G85X165.308Y-68.82
G05
X166.007Y-73.42G85X166.407Y-73.42
G05
T0
M30
