M48
; DRILL file {KiCad (6.0.7)} date Fri 16 Sep 2022 03:10:47 PM CEST
; FORMAT={-:-/ absolute / metric / decimal}
; #@! TF.CreationDate,2022-09-16T15:10:47+02:00
; #@! TF.GenerationSoftware,Kicad,Pcbnew,(6.0.7)
; #@! TF.FileFunction,NonPlated,1,2,NPTH
FMAT,2
METRIC
; #@! TA.AperFunction,NonPlated,NPTH,ComponentDrill
T1C0.800
; #@! TA.AperFunction,NonPlated,NPTH,ComponentDrill
T2C1.200
; #@! TA.AperFunction,NonPlated,NPTH,ComponentDrill
T3C1.750
; #@! TA.AperFunction,NonPlated,NPTH,ComponentDrill
T4C2.200
; #@! TA.AperFunction,NonPlated,NPTH,ComponentDrill
T5C4.000
; #@! TA.AperFunction,NonPlated,NPTH,ComponentDrill
T6C4.300
%
G90
G05
T1
X136.18Y-71.12
X143.18Y-71.12
X156.507Y-71.12
X163.507Y-71.12
T2
X137.12Y-77.53
X162.52Y-77.53
T3
X-5.08Y-60.96
X5.08Y-60.96
X15.24Y-60.96
X17.78Y-81.28
X25.4Y-60.96
X27.94Y-81.28
X38.1Y-30.48
X38.1Y-50.8
X38.1Y-71.12
X48.26Y-30.48
X48.26Y-50.8
X48.26Y-71.12
X60.96Y-22.86
X60.96Y-43.18
X60.96Y-63.5
X71.12Y-22.86
X71.12Y-43.18
X71.12Y-63.5
X86.36Y-35.56
X86.36Y-55.88
X86.36Y-76.2
X96.52Y-35.56
X96.52Y-55.88
X96.52Y-76.2
X104.178Y-113.681
X106.68Y-40.64
X106.68Y-60.96
X106.68Y-81.28
X114.262Y-114.919
X116.84Y-40.64
X116.84Y-60.96
X116.84Y-81.28
X124.766Y-132.883
X134.314Y-136.357
X165.406Y-136.357
X174.954Y-132.883
X182.88Y-40.64
X182.88Y-60.96
X182.88Y-81.28
X185.458Y-114.919
X193.04Y-40.64
X193.04Y-60.96
X193.04Y-81.28
X195.542Y-113.681
X203.2Y-35.73
X203.2Y-55.88
X203.2Y-76.2
X213.36Y-35.73
X213.36Y-55.88
X213.36Y-76.2
X228.6Y-22.86
X228.6Y-43.18
X228.6Y-63.5
X238.76Y-22.86
X238.76Y-43.18
X238.76Y-63.5
X251.46Y-30.48
X251.46Y-50.8
X251.46Y-71.12
X261.62Y-30.48
X261.62Y-50.8
X261.62Y-71.12
X271.78Y-81.28
X274.32Y-60.96
X281.94Y-81.28
X284.48Y-60.96
X294.64Y-60.96
X304.8Y-60.96
T4
X127.0Y-83.82
X144.78Y-83.82
X144.78Y-83.82
X154.94Y-83.82
X172.72Y-83.82
T5
X0.0Y-60.96
X20.32Y-60.96
X22.86Y-81.28
X43.18Y-30.48
X43.18Y-50.8
X43.18Y-71.12
X66.04Y-22.86
X66.04Y-43.18
X66.04Y-63.5
X91.44Y-35.56
X91.44Y-55.88
X91.44Y-76.2
X109.22Y-114.3
X111.76Y-40.64
X111.76Y-60.96
X111.76Y-81.28
X129.54Y-134.62
X170.18Y-134.62
X187.96Y-40.64
X187.96Y-60.96
X187.96Y-81.28
X190.5Y-114.3
X208.28Y-35.73
X208.28Y-55.88
X208.28Y-76.2
X233.68Y-22.86
X233.68Y-43.18
X233.68Y-63.5
X256.54Y-30.48
X256.54Y-50.8
X256.54Y-71.12
X276.86Y-81.28
X279.4Y-60.96
X299.72Y-60.96
T6
X33.02Y-60.96
X53.34Y-40.64
X53.34Y-40.64
X78.74Y-40.64
X78.74Y-40.64
X101.6Y-55.88
X101.6Y-55.88
X101.6Y-86.36
X101.6Y-86.36
X134.62Y-119.38
X134.62Y-119.38
X165.1Y-119.38
X198.12Y-55.88
X198.12Y-55.88
X198.12Y-86.36
X198.12Y-86.36
X220.98Y-40.64
X220.98Y-40.64
X246.38Y-40.64
X246.38Y-40.64
X266.7Y-60.96
T0
M30
