G04 #@! TF.GenerationSoftware,KiCad,Pcbnew,(6.0.7)*
G04 #@! TF.CreationDate,2022-09-16T15:10:19+02:00*
G04 #@! TF.ProjectId,yeti,79657469-2e6b-4696-9361-645f70636258,rev?*
G04 #@! TF.SameCoordinates,Original*
G04 #@! TF.FileFunction,Profile,NP*
%FSLAX46Y46*%
G04 Gerber Fmt 4.6, Leading zero omitted, Abs format (unit mm)*
G04 Created by KiCad (PCBNEW (6.0.7)) date 2022-09-16 15:10:19*
%MOMM*%
%LPD*%
G01*
G04 APERTURE LIST*
G04 #@! TA.AperFunction,Profile*
%ADD10C,0.100000*%
G04 #@! TD*
G04 APERTURE END LIST*
D10*
X33020000Y-20320000D02*
X55880000Y-20320000D01*
X116840000Y-142240000D02*
X96520000Y-124460000D01*
X287020000Y-91440000D02*
X266700000Y-91440000D01*
X33020000Y-91440000D02*
X12700000Y-91440000D01*
X96520000Y-106680000D02*
X81280000Y-86360000D01*
X81280000Y-86360000D02*
X81280000Y-81280000D01*
X287020000Y-71120000D02*
X287020000Y-91440000D01*
X33020000Y-20320000D02*
X33020000Y-27940000D01*
X266700000Y-50800000D02*
X309880000Y-50800000D01*
X-10160000Y-50800000D02*
X33020000Y-50800000D01*
X147320000Y-81280000D02*
X147320000Y-124460000D01*
X101600000Y-25400000D02*
X101600000Y-30480000D01*
X161290000Y-149860000D02*
X152400000Y-124460000D01*
X33020000Y-81280000D02*
X33020000Y-91440000D01*
X147320000Y-124460000D02*
X138430000Y-149860000D01*
X81280000Y-81280000D02*
X53340000Y-81280000D01*
X266700000Y-81280000D02*
X246380000Y-81280000D01*
X266700000Y-91440000D02*
X266700000Y-81280000D01*
X12700000Y-71120000D02*
X-10160000Y-71120000D01*
X203200000Y-106680000D02*
X203200000Y-124460000D01*
X152400000Y-30480000D02*
X198120000Y-30480000D01*
X76200000Y-12700000D02*
X76200000Y-25400000D01*
X-10160000Y-71120000D02*
X-10160000Y-50800000D01*
X198120000Y-30480000D02*
X198120000Y-25400000D01*
X309880000Y-71120000D02*
X287020000Y-71120000D01*
X182880000Y-142240000D02*
X161290000Y-149860000D01*
X266700000Y-20320000D02*
X266700000Y-27940000D01*
X55880000Y-12700000D02*
X55880000Y-20320000D01*
X138430000Y-149860000D02*
X116840000Y-142240000D01*
X266700000Y-27940000D02*
X266700000Y-50800000D01*
X147320000Y-30480000D02*
X147320000Y-81280000D01*
X152400000Y-81280000D02*
X152400000Y-30480000D01*
X55880000Y-12700000D02*
X76200000Y-12700000D01*
X223520000Y-25400000D02*
X223520000Y-12700000D01*
X198120000Y-25400000D02*
X223520000Y-25400000D01*
X12700000Y-91440000D02*
X12700000Y-71120000D01*
X243840000Y-20320000D02*
X243840000Y-12700000D01*
X218440000Y-81280000D02*
X218440000Y-86360000D01*
X96520000Y-124460000D02*
X96520000Y-106680000D01*
X309880000Y-50800000D02*
X309880000Y-71120000D01*
X246380000Y-81280000D02*
X218440000Y-81280000D01*
X223520000Y-12700000D02*
X243840000Y-12700000D01*
X203200000Y-124460000D02*
X182880000Y-142240000D01*
X243840000Y-20320000D02*
X266700000Y-20320000D01*
X101600000Y-30480000D02*
X147320000Y-30480000D01*
X33020000Y-50800000D02*
X33020000Y-27940000D01*
X76200000Y-25400000D02*
X101600000Y-25400000D01*
X152400000Y-81280000D02*
X152400000Y-124460000D01*
X53340000Y-81280000D02*
X33020000Y-81280000D01*
X218440000Y-86360000D02*
X203200000Y-106680000D01*
M02*
