M48
; DRILL file {KiCad 7.0.1} date Mon 24 Apr 2023 10:19:17 PM CEST
; FORMAT={-:-/ absolute / metric / decimal}
; #@! TF.CreationDate,2023-04-24T22:19:17+02:00
; #@! TF.GenerationSoftware,Kicad,Pcbnew,7.0.1
; #@! TF.FileFunction,NonPlated,1,2,NPTH
FMAT,2
METRIC
; #@! TA.AperFunction,NonPlated,NPTH,ComponentDrill
T1C0.800
; #@! TA.AperFunction,NonPlated,NPTH,ComponentDrill
T2C1.750
; #@! TA.AperFunction,NonPlated,NPTH,ComponentDrill
T3C2.200
; #@! TA.AperFunction,NonPlated,NPTH,ComponentDrill
T4C4.000
; #@! TA.AperFunction,NonPlated,NPTH,ComponentDrill
T5C4.300
%
G90
G05
T1
X134.732Y-74.676
X141.732Y-74.676
X158.031Y-74.676
X165.031Y-74.676
T2
X4.572Y-61.468
X14.732Y-61.468
X22.86Y-81.28
X23.876Y-61.468
X33.02Y-81.28
X34.036Y-61.468
X43.18Y-29.972
X43.18Y-49.276
X43.18Y-68.58
X53.34Y-29.972
X53.34Y-49.276
X53.34Y-68.58
X66.04Y-24.892
X66.04Y-44.196
X66.04Y-63.5
X76.2Y-24.892
X76.2Y-44.196
X76.2Y-63.5
X89.916Y-36.576
X89.916Y-55.88
X89.916Y-75.184
X100.076Y-36.576
X100.076Y-55.88
X100.076Y-75.184
X107.734Y-113.681
X109.22Y-41.656
X109.22Y-60.96
X109.22Y-80.264
X117.818Y-114.919
X119.38Y-41.656
X119.38Y-60.96
X119.38Y-80.264
X125.591Y-128.318
X132.649Y-135.626
X167.186Y-135.734
X174.244Y-128.426
X180.34Y-41.656
X180.34Y-60.96
X180.34Y-80.264
X181.902Y-114.919
X190.5Y-41.656
X190.5Y-60.96
X190.5Y-80.264
X191.986Y-113.681
X199.644Y-36.576
X199.644Y-55.88
X199.644Y-75.184
X209.804Y-36.576
X209.804Y-55.88
X209.804Y-75.184
X223.52Y-24.892
X223.52Y-44.196
X223.52Y-63.5
X233.68Y-24.892
X233.68Y-44.196
X233.68Y-63.5
X246.38Y-29.972
X246.38Y-49.276
X246.38Y-68.58
X256.54Y-29.972
X256.54Y-49.276
X256.54Y-68.58
X265.684Y-61.468
X266.7Y-81.28
X275.844Y-61.468
X276.86Y-81.28
X284.988Y-61.468
X295.148Y-61.468
T3
X127.0Y-81.28
X142.24Y-81.28
X157.48Y-81.28
X172.466Y-81.28
T4
X9.652Y-61.468
X27.94Y-81.28
X28.956Y-61.468
X48.26Y-29.972
X48.26Y-49.276
X48.26Y-68.58
X71.12Y-24.892
X71.12Y-44.196
X71.12Y-63.5
X94.996Y-36.576
X94.996Y-55.88
X94.996Y-75.184
X112.776Y-114.3
X114.3Y-41.656
X114.3Y-60.96
X114.3Y-80.264
X129.12Y-131.972
X170.715Y-132.08
X185.42Y-41.656
X185.42Y-60.96
X185.42Y-80.264
X186.944Y-114.3
X204.724Y-36.576
X204.724Y-55.88
X204.724Y-75.184
X228.6Y-24.892
X228.6Y-44.196
X228.6Y-63.5
X251.46Y-29.972
X251.46Y-49.276
X251.46Y-68.58
X270.764Y-61.468
X271.78Y-81.28
X290.068Y-61.468
T5
X39.878Y-58.928
X59.69Y-40.894
X83.058Y-70.104
X104.14Y-45.974
X132.334Y-115.57
X167.386Y-115.57
X195.326Y-44.45
X216.662Y-70.104
X240.03Y-40.894
X260.858Y-58.42
T0
M30
